<svg width="18" height="20" viewBox="0 0 18 20" fill="none" xmlns="http://www.w3.org/2000/svg">
<path fill-rule="evenodd" clip-rule="evenodd" d="M6.16541 13.6089C3.92306 13.6089 2.10526 15.4268 2.10526 17.6691V18.9473C2.10526 19.5286 1.63398 19.9999 1.05263 19.9999C0.471279 19.9999 0 19.5286 0 18.9473V17.6691C0 14.2641 2.76034 11.5037 6.16541 11.5037H11.2782C14.6832 11.5037 17.4436 14.2641 17.4436 17.6691V18.9473C17.4436 19.5286 16.9723 19.9999 16.391 19.9999C15.8096 19.9999 15.3383 19.5286 15.3383 18.9473V17.6691C15.3383 15.4268 13.5205 13.6089 11.2782 13.6089H6.16541Z" fill="white"/>
<path fill-rule="evenodd" clip-rule="evenodd" d="M8.72218 2.10526C7.1857 2.10526 5.94022 3.35078 5.94022 4.88722C5.94022 6.42366 7.1857 7.66917 8.72218 7.66917C10.2587 7.66917 11.5041 6.42366 11.5041 4.88722C11.5041 3.35078 10.2587 2.10526 8.72218 2.10526ZM3.83496 4.88722C3.83496 2.1881 6.02297 0 8.72218 0C11.4214 0 13.6094 2.1881 13.6094 4.88722C13.6094 7.58634 11.4214 9.77444 8.72218 9.77444C6.02297 9.77444 3.83496 7.58634 3.83496 4.88722Z" fill="white"/>
</svg>
