<svg width="31" height="25" viewBox="0 0 31 25" fill="none" xmlns="http://www.w3.org/2000/svg">
<path d="M2.12858 0.0485741C1.8066 0.0485741 1.4978 0.17648 1.27013 0.404154C1.04246 0.631828 0.914551 0.940621 0.914551 1.2626C0.914551 1.58458 1.04246 1.89337 1.27013 2.12105C1.4978 2.34872 1.8066 2.47663 2.12858 2.47663H4.82371L8.00932 15.2239C8.28005 16.3044 9.24763 17.0449 10.3609 17.0449H25.4998C26.5961 17.0449 27.5272 16.3165 27.8149 15.2603L30.9617 3.69065H28.4195L25.4986 14.6169H10.3597L7.17528 1.86961C7.04374 1.34665 6.74051 0.882948 6.31415 0.552776C5.88779 0.222604 5.36296 0.0450594 4.82371 0.0485741H2.12858ZM23.981 17.0449C21.984 17.0449 20.339 18.6899 20.339 20.687C20.339 22.6841 21.984 24.3291 23.981 24.3291C25.9781 24.3291 27.6231 22.6841 27.6231 20.687C27.6231 18.6899 25.9781 17.0449 23.981 17.0449ZM13.0548 17.0449C11.0577 17.0449 9.41273 18.6899 9.41273 20.687C9.41273 22.6841 11.0577 24.3291 13.0548 24.3291C15.0519 24.3291 16.6969 22.6841 16.6969 20.687C16.6969 18.6899 15.0519 17.0449 13.0548 17.0449ZM16.6969 0.0485741V6.1187H13.0548L17.9109 10.9748L22.767 6.1187H19.1249V0.0485741H16.6969ZM13.0548 19.473C13.7395 19.473 14.2688 20.0023 14.2688 20.687C14.2688 21.3717 13.7395 21.901 13.0548 21.901C12.3701 21.901 11.8408 21.3717 11.8408 20.687C11.8408 20.0023 12.3701 19.473 13.0548 19.473ZM23.981 19.473C24.6658 19.473 25.1951 20.0023 25.1951 20.687C25.1951 21.3717 24.6658 21.901 23.981 21.901C23.2963 21.901 22.767 21.3717 22.767 20.687C22.767 20.0023 23.2963 19.473 23.981 19.473Z" fill="#F5AC00"/>
</svg>
