<svg width="14" height="9" viewBox="0 0 14 9" fill="none" xmlns="http://www.w3.org/2000/svg">
<path d="M6.99971 3.00299C7.34995 3.00299 7.69675 3.07198 8.02033 3.20601C8.3439 3.34003 8.63791 3.53648 8.88557 3.78414C9.13322 4.03179 9.32967 4.3258 9.4637 4.64938C9.59773 4.97295 9.66671 5.31976 9.66671 5.66999C9.66671 6.02023 9.59773 6.36703 9.4637 6.69061C9.32967 7.01418 9.13322 7.30819 8.88557 7.55585C8.63791 7.8035 8.3439 7.99995 8.02033 8.13398C7.69675 8.26801 7.34995 8.33699 6.99971 8.33699C6.29238 8.33699 5.61402 8.05601 5.11386 7.55585C4.6137 7.05569 4.33271 6.37733 4.33271 5.66999C4.33271 4.96266 4.6137 4.2843 5.11386 3.78414C5.61402 3.28398 6.29238 3.00299 6.99971 3.00299ZM6.99971 4.00299C6.5576 4.00299 6.13359 4.17862 5.82096 4.49125C5.50834 4.80387 5.33271 5.22788 5.33271 5.66999C5.33271 6.11211 5.50834 6.53612 5.82096 6.84874C6.13359 7.16136 6.5576 7.33699 6.99971 7.33699C7.44183 7.33699 7.86584 7.16136 8.17846 6.84874C8.49108 6.53612 8.66671 6.11211 8.66671 5.66999C8.66671 5.22788 8.49108 4.80387 8.17846 4.49125C7.86584 4.17862 7.44183 4.00299 6.99971 4.00299ZM6.99971 0.666992C10.0757 0.666992 12.7297 2.76699 13.4667 5.70999C13.4843 5.77426 13.4889 5.84139 13.4802 5.90746C13.4715 5.97352 13.4497 6.03718 13.4161 6.0947C13.3824 6.15222 13.3376 6.20243 13.2843 6.24238C13.231 6.28233 13.1702 6.31122 13.1055 6.32735C13.0409 6.34348 12.9737 6.34653 12.9078 6.33631C12.842 6.32609 12.7788 6.30281 12.7221 6.26784C12.6654 6.23287 12.6162 6.18691 12.5775 6.13267C12.5388 6.07843 12.5113 6.017 12.4967 5.95199C12.1873 4.72827 11.4784 3.64278 10.4823 2.8675C9.4862 2.09222 8.25989 1.67148 6.99765 1.67194C5.73541 1.6724 4.50942 2.09403 3.51389 2.87003C2.51837 3.64604 1.81025 4.73204 1.50171 5.95599C1.46872 6.08379 1.38654 6.19337 1.27309 6.26081C1.15963 6.32826 1.02411 6.34812 0.896077 6.31604C0.768043 6.28397 0.657886 6.20257 0.589629 6.0896C0.521372 5.97663 0.500553 5.84125 0.531712 5.71299C0.893407 4.27145 1.72627 2.99203 2.89808 2.07785C4.06988 1.16366 5.51349 0.667103 6.99971 0.666992Z" fill="#909090"/>
</svg>
