<svg width="24" height="23" viewBox="0 0 24 23" fill="none" xmlns="http://www.w3.org/2000/svg">
<path fill-rule="evenodd" clip-rule="evenodd" d="M22.745 4.08038L21.4625 3.77783L17.9963 7.22426L16.033 5.2248L19.4137 1.67807L19.1177 0.375789C18.4033 0.136792 17.6561 0.0103151 16.9028 0.000890702C16.0811 -0.0117453 15.2656 0.144977 14.5071 0.461292C13.7747 0.792798 13.1128 1.26167 12.557 1.8425C11.9383 2.42854 11.4483 3.13689 11.1182 3.92252C10.4826 5.48605 10.4826 7.23596 11.1182 8.79949C7.69027 12.1719 4.30658 15.5891 0.968016 19.05C0.622715 19.5022 0.458286 20.0662 0.501037 20.6335C0.534732 21.2436 0.809123 21.8154 1.26399 22.2235C1.46788 22.4455 1.71124 22.6296 1.98254 22.7628C2.26207 22.8861 2.56298 22.9568 2.86717 22.9716C3.38677 22.9618 3.88499 22.7645 4.2714 22.4175C6.81676 20.0218 11.6937 15.1004 14.4644 12.2163C15.2158 12.5353 16.0231 12.6997 16.8387 12.6981C17.6597 12.6975 18.4722 12.5323 19.2282 12.2123C19.9843 11.8923 20.6685 11.424 21.2405 10.8351C22.4154 9.63686 23.0716 8.02438 23.0673 6.34621C23.0863 5.57828 22.9774 4.81255 22.745 4.08038ZM3.2766 21.2517C3.21331 21.3079 3.13702 21.3475 3.05462 21.3668C2.97356 21.3808 2.89069 21.3808 2.80962 21.3668C2.72463 21.3539 2.64367 21.3218 2.57284 21.2731C2.49684 21.2286 2.43257 21.1666 2.3854 21.0922C2.15519 20.8571 1.93979 20.4098 2.15519 20.1583C4.40787 17.7625 9.04642 13.0796 11.9469 10.2169C12.1114 10.4339 12.2922 10.6411 12.4863 10.8351C12.6803 11.0374 12.8891 11.2248 13.1111 11.3958C10.3059 14.2733 5.73153 18.9004 3.27824 21.2517H3.2766ZM21.5578 6.34621C21.5611 7.60409 21.0711 8.81265 20.1898 9.71372C19.3103 10.5765 18.1274 11.0598 16.8954 11.0598C15.6634 11.0598 14.4806 10.5765 13.6011 9.71372C12.9565 9.04103 12.5162 8.19914 12.3313 7.286C12.1465 6.37285 12.2247 5.42599 12.557 4.55558C12.7781 3.96319 13.1211 3.42382 13.5638 2.97234C14.0065 2.52085 14.5391 2.16731 15.127 1.93458C15.6852 1.70094 16.2845 1.5813 16.8897 1.5827H17.3073L14.3197 4.66246V5.80688L17.4356 8.90801H18.5208L21.5578 5.92198V6.34621ZM3.7814 9.34704H6.29881L7.45803 10.526L8.57286 9.41774L7.47941 8.30292V8.23221L7.57313 5.52078L7.21139 4.80222L2.50872 1.70766L1.53694 1.81619L0.170535 3.21219L0.0620117 4.19712L3.08422 8.99516L3.7814 9.34869V9.34704ZM2.22754 3.37498L6.03243 5.88088L5.96831 7.72741H4.19905L1.74577 3.8436L2.22754 3.37498ZM13.9102 14.8192L15.0185 13.7126L20.1257 18.9497C20.5558 19.4018 20.7957 20.002 20.7957 20.6261C20.7957 21.2501 20.5558 21.8503 20.1257 22.3024C19.8022 22.6345 19.3862 22.8615 18.932 22.9539C18.4777 23.0463 18.0061 22.9997 17.5786 22.8204C17.3058 22.6994 17.0611 22.523 16.8601 22.3024L11.6937 17.0357L12.8102 15.9209L17.9601 21.1728C18.0294 21.2492 18.1155 21.3083 18.2117 21.3454C18.401 21.4223 18.6127 21.4223 18.802 21.3454C18.8981 21.3082 18.9843 21.2491 19.0536 21.1728C19.1255 21.1015 19.1816 21.0157 19.218 20.9212C19.2557 20.8247 19.2758 20.7222 19.2772 20.6187C19.2755 20.5152 19.2561 20.4129 19.2196 20.3161C19.1832 20.2216 19.1272 20.1358 19.0552 20.0645L13.9102 14.8192Z" fill="#39B7E9"/>
</svg>
