<svg width="31" height="20" viewBox="0 0 31 20" fill="none" xmlns="http://www.w3.org/2000/svg">
<g clip-path="url(#clip0_466_2556)">
<path fill-rule="evenodd" clip-rule="evenodd" d="M15.4998 19.5208C24.0369 19.5208 31.0001 19.0972 31.0001 18.5777C31.0001 18.0582 24.0369 17.634 15.4998 17.634C6.96272 17.634 -0.000488281 18.0576 -0.000488281 18.5777C-0.000488281 19.0978 6.96272 19.5208 15.4998 19.5208Z" fill="#F0EFEF"/>
<path fill-rule="evenodd" clip-rule="evenodd" d="M2.91852 0.00629306L15.9825 1.58755C16.2016 1.61468 16.4011 1.72742 16.5373 1.90114C16.6736 2.07486 16.7356 2.29545 16.7098 2.51473L16.5616 3.73772C16.5345 3.9568 16.4217 4.15623 16.248 4.29241C16.0742 4.42859 15.8536 4.49045 15.6344 4.46447L2.5699 2.88321C2.35089 2.85594 2.15155 2.74315 2.01539 2.56944C1.87924 2.39574 1.81732 2.17523 1.84315 1.95604L1.99077 0.733614C2.0179 0.514384 2.13072 0.314811 2.30457 0.178521C2.47841 0.0422305 2.69915 -0.0196905 2.91852 0.00629306Z" fill="#2E3324"/>
<path d="M27.3196 10.0747H3.68701V11.0768H27.3196V10.0747Z" fill="#233064"/>
<path fill-rule="evenodd" clip-rule="evenodd" d="M2.8877 5.84073H28.1191C27.705 7.85293 27.317 9.74022 26.9552 11.5026L25.9899 16.2043C25.8264 17.0021 25.0679 17.634 24.3019 17.634H6.69577C5.93381 17.634 5.18208 17.0032 5.01856 16.2072L4.05334 11.5026C3.69034 9.73606 3.30255 7.84877 2.88997 5.84073H2.8877ZM20.2997 5.84073C20.1515 7.73484 20.0124 9.51311 19.8818 11.188C19.758 12.7695 19.6411 14.266 19.5309 15.6775C19.5229 15.7461 19.5295 15.8157 19.5502 15.8816C19.5709 15.9475 19.6053 16.0084 19.6511 16.0601C19.6969 16.1119 19.7531 16.1534 19.8161 16.182C19.879 16.2105 19.9472 16.2255 20.0164 16.2259H20.7414C21.031 16.2259 21.2956 15.9795 21.3296 15.6775C21.4897 14.2637 21.6589 12.7672 21.8372 11.188C22.0263 9.51311 22.2273 7.73484 22.4419 5.84073H20.2997ZM4.64099 5.84073C4.97598 7.73332 5.29147 9.51614 5.58747 11.1892C5.86682 12.7716 6.1297 14.2648 6.38236 15.6786C6.43913 15.9818 6.71848 16.2282 7.00691 16.2282H7.73196C8.02323 16.2282 8.22536 15.9829 8.18221 15.6797C7.98121 14.266 7.77 12.7727 7.5463 11.1903C7.30953 9.51425 7.05517 7.73484 6.78661 5.84187L4.64099 5.84073ZM16.3837 5.84073C16.3565 7.73484 16.3309 9.51311 16.3071 11.188C16.2844 12.7695 16.263 14.266 16.2429 15.6775C16.2405 15.7478 16.2521 15.8179 16.277 15.8838C16.3019 15.9496 16.3396 16.0099 16.388 16.061C16.4364 16.1121 16.4945 16.1532 16.5589 16.1817C16.6232 16.2102 16.6926 16.2256 16.763 16.2271H17.4864C17.6313 16.2227 17.7692 16.1636 17.8722 16.0616C17.9753 15.9596 18.0358 15.8223 18.0416 15.6775C18.1117 14.2637 18.186 12.7672 18.2648 11.188C18.3482 9.51311 18.4351 7.73484 18.5282 5.84073H16.3837ZM12.4706 5.84073C12.5637 7.7337 12.6529 9.51197 12.7346 11.188C12.8103 12.7695 12.8838 14.2663 12.9549 15.6786C12.961 15.8233 13.0217 15.9603 13.1247 16.062C13.2277 16.1638 13.3655 16.2227 13.5102 16.2271H14.2375C14.3079 16.2256 14.3773 16.2102 14.4417 16.1817C14.5061 16.1532 14.5641 16.1121 14.6125 16.061C14.6609 16.0099 14.6986 15.9496 14.7235 15.8838C14.7485 15.8179 14.76 15.7478 14.7576 15.6775C14.7372 14.2637 14.7154 12.7672 14.6923 11.188C14.6679 9.51197 14.6424 7.7337 14.6151 5.84073H12.4706ZM8.55694 5.84073C8.77099 7.7337 8.97255 9.51197 9.16219 11.188C9.34123 12.7695 9.51156 14.2663 9.67319 15.6786C9.70725 15.9818 9.97184 16.2271 10.2614 16.2271H10.9865C11.0555 16.2266 11.1237 16.2115 11.1866 16.1829C11.2495 16.1543 11.3057 16.1128 11.3515 16.0611C11.3973 16.0093 11.4317 15.9485 11.4524 15.8826C11.4731 15.8168 11.4798 15.7472 11.4719 15.6786C11.361 14.2648 11.2437 12.768 11.1199 11.188C10.9887 9.51197 10.849 7.7337 10.7014 5.84073H8.55694ZM24.2128 5.84073C23.9444 7.73332 23.6916 9.51614 23.4542 11.1892C23.2271 12.7695 23.014 14.2646 22.8149 15.6746C22.7723 15.9767 22.9739 16.2231 23.2652 16.2231H23.9908C24.2798 16.2231 24.5625 15.9767 24.6153 15.6735C24.8659 14.2597 25.1309 12.7646 25.4102 11.188C25.7074 9.51349 26.0227 7.73067 26.3561 5.8396L24.2128 5.84073Z" fill="#2E417F"/>
<path d="M29.1435 1.52783H1.86356C1.17871 1.52783 0.623535 2.08301 0.623535 2.76785V4.60064C0.623535 5.28548 1.17871 5.84066 1.86356 5.84066H29.1435C29.8283 5.84066 30.3835 5.28548 30.3835 4.60064V2.76785C30.3835 2.08301 29.8283 1.52783 29.1435 1.52783Z" fill="#2E417F"/>
<path fill-rule="evenodd" clip-rule="evenodd" d="M1.86328 5.84082H29.1432C28.6958 8.01616 28.2772 10.0567 27.8873 11.9626C27.5186 13.756 27.1704 15.4504 26.8426 17.0459C26.6654 17.9083 25.8456 18.5914 25.0172 18.5914H5.98079C5.15638 18.5914 4.34389 17.91 4.16732 17.0487C3.83914 15.4521 3.49053 13.7568 3.12147 11.9626C2.72857 10.0522 2.30917 8.01162 1.86328 5.84082ZM20.689 5.84082C20.5289 7.88879 20.3785 9.81128 20.2348 11.6219C20.1016 13.3321 19.9751 14.9502 19.8555 16.4764C19.83 16.804 20.0656 17.0692 20.3802 17.0692H21.1643C21.4771 17.0692 21.7633 16.8023 21.8007 16.4764C21.9733 14.9476 22.1562 13.3294 22.3492 11.6219C22.5536 9.81128 22.7711 7.88879 23.0027 5.84082H20.689ZM3.75909 5.84082C4.12076 7.88765 4.46313 9.81128 4.78108 11.6231C5.08314 13.3343 5.36759 14.9485 5.63842 16.4775C5.6952 16.8051 6.0018 17.0714 6.31465 17.0714H7.09874C7.41386 17.0714 7.63189 16.8063 7.58533 16.4787C7.36844 14.9497 7.13962 13.3355 6.89832 11.6242C6.64168 9.81241 6.36688 7.88879 6.07675 5.84196L3.75909 5.84082ZM16.4551 5.84082C16.4256 7.88879 16.3983 9.81128 16.3722 11.6219C16.3478 13.3321 16.3245 14.9474 16.303 16.4764C16.3004 16.5525 16.313 16.6283 16.3399 16.6995C16.3669 16.7706 16.4078 16.8357 16.4601 16.891C16.5125 16.9463 16.5753 16.9906 16.6449 17.0213C16.7145 17.0521 16.7895 17.0688 16.8656 17.0703H17.6475C17.8038 17.0656 17.9525 17.0019 18.0638 16.8921C18.1751 16.7822 18.2408 16.6343 18.2476 16.4781C18.3231 14.9491 18.4037 13.3338 18.4889 11.6236C18.5792 9.81355 18.6729 7.89049 18.7728 5.84252L16.4551 5.84082ZM12.2241 5.84082C12.3246 7.88765 12.4211 9.81014 12.5079 11.6219C12.5931 13.3321 12.6709 14.9451 12.7475 16.4781C12.7544 16.6345 12.8201 16.7825 12.9315 16.8925C13.0429 17.0024 13.1918 17.0661 13.3483 17.0709H14.1346C14.2106 17.0692 14.2855 17.0526 14.355 17.0219C14.4245 16.9911 14.4872 16.9469 14.5396 16.8918C14.5919 16.8367 14.6328 16.7717 14.6598 16.7007C14.6869 16.6297 14.6996 16.5541 14.6973 16.4781C14.6746 14.9491 14.6513 13.3338 14.6263 11.6236C14.6002 9.81185 14.5724 7.88936 14.5429 5.84252L12.2241 5.84082ZM7.99299 5.84082C8.22408 7.88765 8.4421 9.81014 8.64707 11.6219C8.84087 13.3321 9.02426 14.9506 9.19725 16.4775C9.23415 16.8051 9.52031 17.0703 9.83315 17.0703H10.6173C10.9324 17.0703 11.1674 16.804 11.1419 16.4775L10.7615 11.6219C10.6195 9.81014 10.4691 7.88765 10.3072 5.84082H7.99299ZM24.9201 5.84082C24.6294 7.88898 24.3557 9.81639 24.0991 11.6231C23.8557 13.3321 23.6256 14.9498 23.4087 16.4764C23.3621 16.8023 23.579 17.0692 23.8953 17.0692H24.6794C24.9922 17.0692 25.2977 16.8023 25.3556 16.4747C25.6258 14.9462 25.9126 13.329 26.2158 11.6231C26.5379 9.81298 26.8785 7.88557 27.2378 5.84082H24.9201Z" fill="#233064"/>
<path d="M27.3196 10.7351H3.68701V11.7378H27.3196V10.7351Z" fill="#233064"/>
<path fill-rule="evenodd" clip-rule="evenodd" d="M15.8775 10.7351H22.8458L22.0645 11.7372H15.0962L15.8775 10.7351Z" fill="#233064"/>
<path fill-rule="evenodd" clip-rule="evenodd" d="M15.5032 4.62801C15.6898 4.62801 15.8723 4.57267 16.0275 4.46898C16.1827 4.36529 16.3036 4.21791 16.375 4.04548C16.4464 3.87306 16.4651 3.68332 16.4287 3.50027C16.3923 3.31722 16.3024 3.14908 16.1705 3.01711C16.0385 2.88514 15.8704 2.79527 15.6873 2.75885C15.5043 2.72244 15.3145 2.74113 15.1421 2.81255C14.9697 2.88398 14.8223 3.00492 14.7186 3.16011C14.6149 3.31529 14.5596 3.49773 14.5596 3.68437C14.5602 3.93445 14.6598 4.17412 14.8366 4.35096C15.0135 4.5278 15.2531 4.62741 15.5032 4.62801Z" fill="#2E3324"/>
<path fill-rule="evenodd" clip-rule="evenodd" d="M11.3525 10.0893L18.9482 2.46237L22.8341 2.45386L22.8421 6.34028L15.2469 13.9678L11.3525 10.0893ZM20.2059 3.60133C20.0586 3.74865 19.9584 3.93632 19.9178 4.14061C19.8772 4.3449 19.8981 4.55664 19.9778 4.74906C20.0575 4.94149 20.1925 5.10595 20.3657 5.22165C20.5389 5.33736 20.7425 5.39912 20.9508 5.39912C21.1591 5.39912 21.3627 5.33736 21.5359 5.22165C21.7091 5.10595 21.8441 4.94149 21.9238 4.74906C22.0035 4.55664 22.0244 4.3449 21.9838 4.14061C21.9432 3.93632 21.843 3.74865 21.6957 3.60133C21.4981 3.40384 21.2302 3.29291 20.9508 3.29291C20.6714 3.29291 20.4035 3.40384 20.2059 3.60133Z" fill="#E94924"/>
<path fill-rule="evenodd" clip-rule="evenodd" d="M11.3525 10.0893L18.9482 2.46237L22.8341 2.45386L21.6986 3.59849C21.6005 3.50086 21.4843 3.42348 21.3563 3.37078C21.2284 3.31808 21.0914 3.29109 20.953 3.29136C20.8147 3.29162 20.6778 3.31913 20.55 3.37232C20.4223 3.4255 20.3063 3.50332 20.2087 3.60133C20.1111 3.69934 20.0337 3.81563 19.981 3.94354C19.9283 4.07146 19.9013 4.2085 19.9016 4.34684C19.9018 4.48519 19.9293 4.62213 19.9825 4.74984C20.0357 4.87755 20.1135 4.99354 20.2115 5.09118L13.2994 12.0288L11.3525 10.0893Z" fill="#F15827"/>
<path fill-rule="evenodd" clip-rule="evenodd" d="M12.1626 10.4319L12.086 10.5085L11.7056 10.127L11.7822 10.0503L12.1655 10.4319H12.1626ZM19.961 3.38122C19.8295 3.51605 19.7271 3.67645 19.6601 3.85247L19.7612 3.89051C19.8232 3.7285 19.9177 3.58088 20.0388 3.45673L19.961 3.38122ZM19.5795 4.17951C19.5573 4.36661 19.5732 4.55624 19.626 4.73707L19.7299 4.70641C19.6811 4.53979 19.6664 4.36501 19.6868 4.19257L19.5795 4.17951ZM19.7606 5.04594C19.856 5.2083 19.9835 5.34952 20.1353 5.46098L20.1995 5.37355C20.0594 5.27062 19.9416 5.14045 19.8532 4.99086L19.7606 5.04764V5.04594ZM20.4294 5.62507C20.6038 5.69618 20.7908 5.73095 20.9791 5.72727V5.61882C20.8056 5.62253 20.6332 5.59065 20.4726 5.52514L20.4317 5.62507H20.4294ZM21.3129 5.68185C21.4947 5.6329 21.6645 5.54731 21.812 5.43032L21.7444 5.34516C21.6086 5.45332 21.4521 5.53254 21.2845 5.57794L21.3129 5.68185ZM22.051 5.18959C22.166 5.04046 22.2489 4.8692 22.2946 4.68654L22.1896 4.66042C22.1465 4.82899 22.0692 4.98689 21.9624 5.12429L22.0487 5.18959H22.051ZM22.3349 4.35212C22.3358 4.16384 22.2981 3.97737 22.2242 3.80421L22.1248 3.8468C22.1929 4.00674 22.2276 4.17887 22.227 4.35268L22.3349 4.35212ZM22.055 3.51294C21.9411 3.36293 21.798 3.23758 21.6343 3.14446L21.5815 3.23871C21.7324 3.3249 21.8643 3.44079 21.9693 3.57937L22.055 3.51351V3.51294ZM21.3231 3.015C21.1415 2.96488 20.9517 2.95213 20.765 2.97753L20.7803 3.08484C20.9524 3.06135 21.1274 3.07314 21.2947 3.11948L21.3231 3.015ZM20.4397 3.06327L20.48 3.16376C20.3186 3.22784 20.1721 3.32448 20.0496 3.44765L19.973 3.371C20.106 3.23769 20.2648 3.1328 20.4397 3.0627V3.06327ZM11.8662 10.0401L11.7896 9.96401L12.1711 9.5802L12.2478 9.65685L11.8662 10.0401ZM12.4772 9.4269L12.4005 9.35025L12.7821 8.967L12.8587 9.04365L12.4772 9.4269ZM13.0898 8.81313L13.0115 8.73478L13.393 8.35153L13.4696 8.42761L13.0898 8.81313ZM13.7002 8.19937L13.6235 8.12329L14.0056 7.74004L14.0823 7.81612L13.7002 8.19937ZM14.3111 7.58617L14.2344 7.50725L14.6166 7.12343L14.6932 7.20008L14.3111 7.58333V7.58617ZM14.922 6.97297L14.8454 6.89632L15.2269 6.51307L15.3041 6.58972L14.922 6.97297ZM15.5329 6.35977L15.4563 6.28312L15.8378 5.89987L15.9145 5.97652L15.5329 6.35977ZM16.1439 5.74714L16.0672 5.67106L16.4488 5.28781L16.5254 5.36389L16.1439 5.74714ZM16.7548 5.13395L16.6781 5.05786L17.0597 4.67461L17.1363 4.7507L16.7548 5.13395ZM17.3657 4.52075L17.2885 4.44126L17.6706 4.05744L17.7473 4.13409L17.3657 4.51734V4.52075ZM17.9761 3.90755L17.8994 3.8309L18.2815 3.44765L18.3582 3.5243L17.9761 3.90755ZM18.587 3.29435L18.5104 3.2177L18.8919 2.83445L18.9691 2.9111L18.587 3.29435ZM19.2002 2.79357V2.68115H19.7413V2.78903H19.2002V2.79357ZM20.0655 2.79357V2.68115H20.6066V2.78903H20.0655V2.79357ZM20.9314 2.79357V2.68115H21.4724V2.78903H20.9314V2.79357ZM21.7967 2.79357V2.68513H22.3377V2.79357H21.7967ZM22.5069 2.83956H22.6148V3.38065H22.5069V2.83956ZM22.5069 3.70542H22.6148V4.24651H22.5069V3.70542ZM22.5069 4.57128H22.6154V5.11237H22.5075V4.57185L22.5069 4.57128ZM22.5069 5.43657H22.6154V5.97766H22.5075V5.43657H22.5069ZM22.4774 6.24451L22.5546 6.32116L22.1725 6.70441L22.0959 6.62776L22.4774 6.24451ZM21.8671 6.85771L21.9437 6.93436L21.5616 7.31761L21.4849 7.24153L21.8671 6.85771ZM21.2612 7.46353L21.3379 7.53961L20.9558 7.92286L20.8791 7.84791L21.2612 7.46466V7.46353ZM20.6503 8.07502L20.727 8.15111L20.3454 8.53435L20.2688 8.45827L20.6503 8.07502ZM20.0394 8.68822L20.116 8.76487L19.7345 9.14812L19.6578 9.07147L20.0394 8.68822ZM19.4273 9.30312L19.504 9.37977L19.1224 9.76302L19.0458 9.68637L19.4273 9.30312ZM18.8164 9.91632L18.8936 9.99297L18.5115 10.3762L18.4348 10.3001L18.8164 9.91632ZM18.206 10.5301L18.2827 10.6062L17.9006 10.9894L17.8251 10.9139L18.2072 10.5307L18.206 10.5301ZM17.5962 11.141L17.6729 11.2171L17.2913 11.6009L17.213 11.5265L17.5951 11.1433L17.5962 11.141ZM16.9859 11.7565L17.0625 11.8331L16.681 12.2164L16.6043 12.1397L16.9859 11.7565ZM16.375 12.3697L16.4516 12.4463L16.0701 12.8296L15.9934 12.7535L16.375 12.3697ZM15.764 12.9834L15.8407 13.0595L15.4591 13.4428L15.3825 13.3667L15.764 12.9834ZM15.2298 13.4859L15.1531 13.5631L14.7716 13.181L14.8482 13.1044L15.2315 13.4859H15.2298ZM14.6166 12.8756L14.5399 12.9522L14.1567 12.5701L14.2327 12.4935L14.6166 12.8756ZM14.0028 12.2646L13.9267 12.3413L13.5435 11.9597L13.6195 11.8825L14.0028 12.2646ZM13.389 11.652L13.3129 11.7287L12.9297 11.3471L13.0058 11.2705L13.389 11.652ZM12.7758 11.0411L12.6992 11.1177L12.3159 10.7362L12.3926 10.6595L12.7758 11.0411Z" fill="white"/>
<path fill-rule="evenodd" clip-rule="evenodd" d="M23.9236 1.08379C24.4844 1.08198 25.0347 1.23567 25.5134 1.52779H24.9456C24.6206 1.40206 24.275 1.33794 23.9264 1.33872C23.2296 1.33407 22.5571 1.59471 22.0454 2.06774C21.9187 2.18529 21.8046 2.31562 21.7047 2.45667H21.3998C21.53 2.24534 21.6877 2.05229 21.8688 1.88265C22.4277 1.36505 23.1625 1.07945 23.9242 1.08379H23.9236ZM25.8841 5.84062C25.3185 6.316 24.5993 6.56953 23.8606 6.55396C23.1218 6.5384 22.414 6.2548 21.8688 5.75602C21.6005 5.50951 21.3861 5.21025 21.2388 4.877C21.0916 4.54374 21.0148 4.18366 21.0132 3.81933C21.013 3.64403 21.0309 3.46919 21.0666 3.29755C21.1513 3.30635 21.2346 3.32541 21.3147 3.35433C21.2836 3.50699 21.268 3.6624 21.2681 3.8182C21.2697 4.1478 21.3393 4.47352 21.4727 4.77493C21.6061 5.07635 21.8003 5.34695 22.0431 5.56979C22.5547 6.04307 23.2273 6.30375 23.9242 6.29881C24.4717 6.30124 25.0077 6.14141 25.4645 5.83948L25.8841 5.84062Z" fill="#2E3324"/>
</g>
<defs>
<clipPath id="clip0_466_2556">
<rect width="31" height="19.5207" fill="white"/>
</clipPath>
</defs>
</svg>
