<svg width="25" height="29" viewBox="0 0 25 29" fill="none" xmlns="http://www.w3.org/2000/svg">
<g clip-path="url(#clip0_466_2614)">
<path fill-rule="evenodd" clip-rule="evenodd" d="M12.7621 28.0354C18.8062 28.0354 23.7357 27.8144 23.7357 27.5383C23.7357 27.2621 18.8062 27.0439 12.7621 27.0439C6.71806 27.0439 1.78857 27.2649 1.78857 27.5383C1.78857 27.8117 6.71806 28.0354 12.7621 28.0354Z" fill="#EFEFEF"/>
<path d="M11.437 1.0654L11.0576 1.11987L13.7047 19.5579L14.0842 19.5035L11.437 1.0654Z" fill="#333333"/>
<path d="M11.2046 0.0345196L10.9722 0.0673828L11.1642 1.42563L11.3966 1.39277L11.2046 0.0345196Z" fill="#333333"/>
<path fill-rule="evenodd" clip-rule="evenodd" d="M11.4335 2.37557C16.9015 1.59016 22.0464 3.80112 24.8981 7.67235C23.9591 7.30671 23.1174 7.23049 22.5463 8.00982C21.097 7.44534 19.8664 7.56796 18.9009 8.53287C17.3544 7.97116 15.9918 8.20148 14.7911 9.12275C13.201 8.43566 11.639 8.69139 10.1079 9.79603C8.76248 9.16418 7.38885 9.4801 5.9981 10.3859C4.90229 9.72313 3.68166 9.94074 2.35277 10.909C1.50827 10.3511 0.732805 10.5549 0.000976562 11.2464C1.64745 6.72788 5.9611 3.16042 11.4335 2.37557Z" fill="#233064"/>
<path fill-rule="evenodd" clip-rule="evenodd" d="M11.4333 2.37545C15.8695 1.73862 20.1191 4.07771 22.546 8.00915C21.0967 7.44468 19.8662 7.56729 18.9007 8.5322C17.3542 7.97049 15.9916 8.20081 14.7909 9.12209C13.2007 8.43555 11.6388 8.69127 10.1077 9.79592C8.76225 9.16406 7.38862 9.47999 5.99787 10.3858C4.90206 9.72301 3.68143 9.94063 2.35254 10.9089C3.57428 6.4516 6.99482 3.01173 11.4333 2.37545Z" fill="#2D417F"/>
<path fill-rule="evenodd" clip-rule="evenodd" d="M11.4335 2.37571C14.2685 1.96865 17.1345 4.50602 18.9025 8.53301C17.356 7.9713 15.9934 8.20162 14.7927 9.12289C13.2009 8.4358 11.6389 8.69153 10.1079 9.79617C8.76243 9.16432 7.3888 9.48024 5.99805 10.3861C6.55921 6.02325 8.59562 2.78167 11.4335 2.37571Z" fill="#233064"/>
<path fill-rule="evenodd" clip-rule="evenodd" d="M11.4332 2.37542C12.4599 2.22906 13.7645 4.99067 14.7902 9.12261C13.2006 8.43552 11.6386 8.69124 10.1076 9.79589C9.92644 5.53968 10.4014 2.52289 11.4332 2.37542Z" fill="#2D417F"/>
<path d="M12.6095 13.23H11.6821V15.2493H12.6095V13.23Z" fill="#E39400"/>
<path fill-rule="evenodd" clip-rule="evenodd" d="M12.1454 13.9013C12.357 13.9014 12.5638 13.8387 12.7398 13.7212C12.9158 13.6037 13.0529 13.4367 13.1339 13.2412C13.2148 13.0457 13.236 12.8306 13.1947 12.6231C13.1533 12.4156 13.0514 12.225 12.9017 12.0755C12.752 11.926 12.5613 11.8242 12.3538 11.7831C12.1462 11.742 11.9311 11.7633 11.7357 11.8445C11.5403 11.9257 11.3734 12.063 11.2561 12.2391C11.1388 12.4151 11.0763 12.6221 11.0767 12.8337C11.0775 13.1167 11.1905 13.3879 11.3907 13.588C11.591 13.7881 11.8623 13.9007 12.1454 13.9013Z" fill="#F5AC00"/>
<path fill-rule="evenodd" clip-rule="evenodd" d="M12.0327 11.8127C12.4237 11.8127 12.6629 12.1298 12.5662 12.5214C12.4696 12.913 12.0746 13.2295 11.6825 13.2295C11.2903 13.2295 11.0523 12.9124 11.149 12.5214C11.2456 12.1303 11.6411 11.8127 12.0327 11.8127Z" fill="#FFBB00"/>
<path fill-rule="evenodd" clip-rule="evenodd" d="M11.8115 11.9351C12.0628 11.9351 12.2164 12.1389 12.1545 12.3907C12.1201 12.5169 12.0467 12.629 11.9447 12.7108C11.8427 12.7927 11.7174 12.8401 11.5867 12.8464C11.3349 12.8464 11.1813 12.6426 11.2432 12.3907C11.2778 12.2646 11.3514 12.1526 11.4535 12.0708C11.5556 11.9889 11.6809 11.9414 11.8115 11.9351Z" fill="#FFD119"/>
<path d="M11.0372 13.23H10.1099V15.2493H11.0372V13.23Z" fill="#E39400"/>
<path fill-rule="evenodd" clip-rule="evenodd" d="M10.5737 13.9013C10.7853 13.9013 10.9921 13.8385 11.1679 13.721C11.3438 13.6034 11.4809 13.4363 11.5618 13.2408C11.6426 13.0453 11.6637 12.8302 11.6223 12.6228C11.5809 12.4153 11.4789 12.2248 11.3292 12.0753C11.1795 11.9258 10.9888 11.8241 10.7813 11.783C10.5738 11.742 10.3587 11.7634 10.1633 11.8446C9.96798 11.9258 9.80109 12.0631 9.6838 12.2391C9.5665 12.4152 9.50407 12.6221 9.5044 12.8337C9.50542 13.1168 9.61845 13.388 9.81881 13.588C10.0192 13.7881 10.2906 13.9007 10.5737 13.9013Z" fill="#F5AC00"/>
<path fill-rule="evenodd" clip-rule="evenodd" d="M10.4602 11.8127C10.8512 11.8127 11.0904 12.1298 10.9943 12.5214C10.8982 12.913 10.5021 13.2295 10.1105 13.2295C9.71894 13.2295 9.48034 12.9124 9.57644 12.5214C9.67255 12.1303 10.0691 11.8127 10.4602 11.8127Z" fill="#FFBB00"/>
<path fill-rule="evenodd" clip-rule="evenodd" d="M10.2387 11.9351C10.4906 11.9351 10.6441 12.1389 10.5823 12.3907C10.5477 12.5168 10.4742 12.6288 10.3722 12.7106C10.2703 12.7925 10.1451 12.84 10.0145 12.8464C9.7626 12.8464 9.60906 12.6426 9.67092 12.3907C9.7053 12.2645 9.77876 12.1525 9.88077 12.0706C9.98277 11.9888 10.1081 11.9413 10.2387 11.9351Z" fill="#FFD119"/>
<path fill-rule="evenodd" clip-rule="evenodd" d="M19.9854 21.5528C20.5086 22.0096 20.8799 22.6152 21.0495 23.2887C21.2192 23.9622 21.1791 24.6714 20.9348 25.3215C20.6904 25.9716 20.2533 26.5316 19.6821 26.9266C19.1108 27.3216 18.4325 27.5327 17.738 27.5317H4.97933C4.28495 27.5324 3.6069 27.3211 3.03582 26.9261C2.46474 26.5311 2.02784 25.9712 1.78352 25.3212C1.5392 24.6712 1.4991 23.9621 1.66857 23.2887C1.83805 22.6153 2.20903 22.0097 2.73193 21.5528C4.2116 20.2538 4.97933 18.5587 4.97933 16.5897V15.8164H17.738V16.5897C17.738 18.5587 18.5057 20.2538 19.9854 21.5528Z" fill="#823103"/>
<path fill-rule="evenodd" clip-rule="evenodd" d="M4.69089 19.7135C4.2765 20.5343 3.70554 21.266 3.01017 21.8676C2.55121 22.268 2.22549 22.799 2.07658 23.3895C1.92767 23.9801 1.96268 24.6021 2.17693 25.1722C2.39118 25.7423 2.77444 26.2334 3.27544 26.5798C3.77643 26.9261 4.37126 27.1112 4.98031 27.1102L4.84002 26.6242C4.38215 25.0352 4.85604 23.4257 6.10208 22.3382L7.52376 21.0971C7.70945 20.9347 7.84866 20.7258 7.92718 20.492C8.00569 20.2581 8.02069 20.0076 7.97064 19.766C7.92058 19.5244 7.80727 19.3005 7.64229 19.1171C7.47731 18.9337 7.26658 18.7974 7.03164 18.7221C6.58745 18.5788 6.10651 18.6001 5.67672 18.7821C5.24693 18.9641 4.89701 19.2947 4.69089 19.7135Z" fill="#9E4511"/>
<path fill-rule="evenodd" clip-rule="evenodd" d="M19.9856 21.5528C20.5088 22.0096 20.8801 22.6152 21.0497 23.2887C21.2194 23.9622 21.1794 24.6714 20.935 25.3215C20.6906 25.9716 20.2536 26.5316 19.6823 26.9266C19.111 27.3216 18.4328 27.5327 17.7382 27.5317H6.11237L15.5958 26.3608C16.0634 26.303 16.508 26.1246 16.8858 25.843C17.2636 25.5615 17.5618 25.1865 17.7509 24.755C17.94 24.3234 18.0137 23.85 17.9646 23.3814C17.9155 22.9128 17.7454 22.465 17.4709 22.082C16.6424 20.9282 15.9951 19.6153 15.4925 18.1699L4.94531 17.3077L6.11182 15.8164H17.7382V16.5897C17.7382 18.5587 18.506 20.2538 19.9856 21.5528Z" fill="#702A02"/>
<path fill-rule="evenodd" clip-rule="evenodd" d="M19.9856 21.5528C20.5088 22.0096 20.8801 22.6152 21.0497 23.2887C21.2194 23.9622 21.1794 24.6714 20.935 25.3215C20.6906 25.9716 20.2536 26.5316 19.6823 26.9266C19.111 27.3216 18.4327 27.5327 17.7382 27.5317H9.52683C12.7049 27.2909 14.6005 27.3798 17.7614 26.9894C20.2309 26.6845 20.5335 24.0759 19.1975 22.2134C18.369 21.0602 16.9097 19.612 16.7849 17.6993L8.35977 17.3077L6.11182 15.8164H17.7382V16.5897C17.7382 18.5587 18.506 20.2538 19.9856 21.5528Z" fill="#5E2402"/>
<path fill-rule="evenodd" clip-rule="evenodd" d="M4.87251 14.5398H17.8466C18.2132 14.541 18.5644 14.6871 18.8236 14.9463C19.0828 15.2055 19.229 15.5568 19.2302 15.9234C19.2291 16.29 19.0831 16.6414 18.8238 16.9008C18.5646 17.1601 18.2133 17.3063 17.8466 17.3075H4.87251C4.50636 17.3057 4.15574 17.1593 3.89709 16.9002C3.63843 16.641 3.49272 16.2901 3.4917 15.9239C3.49257 15.5577 3.63822 15.2066 3.89689 14.9473C4.15556 14.688 4.50626 14.5415 4.87251 14.5398Z" fill="#FFBB00"/>
<path fill-rule="evenodd" clip-rule="evenodd" d="M12.9289 14.5398H17.8446C18.2112 14.541 18.5624 14.6871 18.8216 14.9463C19.0808 15.2055 19.227 15.5568 19.2282 15.9234C19.2271 16.2898 19.0813 16.6409 18.8224 16.9002C18.5635 17.1595 18.2126 17.3059 17.8462 17.3075H7.91602C10.882 17.2246 14.0667 17.4003 16.8128 16.7066C17.8021 16.4569 17.7639 15.2026 16.9261 15.0286C15.6773 14.7668 13.3409 14.563 12.9289 14.5398Z" fill="#F5AC00"/>
<path fill-rule="evenodd" clip-rule="evenodd" d="M16.7382 14.5398H17.8462C18.2128 14.541 18.564 14.6871 18.8232 14.9463C19.0825 15.2055 19.2286 15.5568 19.2298 15.9234C19.2287 16.29 19.0827 16.6414 18.8234 16.9008C18.5642 17.1601 18.2129 17.3063 17.8462 17.3075H14.0352C15.4259 17.3036 16.324 17.2523 17.3358 17.07C18.9298 16.7833 18.7167 15.2733 17.8429 14.8137C17.5165 14.6414 17.1431 14.5608 16.7382 14.5398Z" fill="#E39400"/>
<path d="M8.33697 14.7102H4.60106C4.26856 14.7102 3.99902 14.9797 3.99902 15.3122C3.99902 15.6447 4.26856 15.9143 4.60106 15.9143H8.33697C8.66947 15.9143 8.939 15.6447 8.939 15.3122C8.939 14.9797 8.66947 14.7102 8.33697 14.7102Z" fill="#FFD119"/>
<path d="M10.1352 14.7102H10.0679C9.73536 14.7102 9.46582 14.9797 9.46582 15.3122C9.46582 15.6447 9.73536 15.9143 10.0679 15.9143H10.1352C10.4677 15.9143 10.7373 15.6447 10.7373 15.3122C10.7373 14.9797 10.4677 14.7102 10.1352 14.7102Z" fill="#FFD119"/>
<path d="M16.1155 26.6226H12.3066V27.5317H16.1155V26.6226Z" fill="#FFBB00"/>
<path d="M12.5903 26.7766H12.4224V27.3775H12.5903V26.7766Z" fill="#E39400"/>
<path fill-rule="evenodd" clip-rule="evenodd" d="M12.73 26.7766H12.8957V27.377H12.73V26.7766Z" fill="#E39400"/>
<path fill-rule="evenodd" clip-rule="evenodd" d="M13.0376 26.7766H13.2033V27.377H13.0376V26.7766Z" fill="#E39400"/>
<path fill-rule="evenodd" clip-rule="evenodd" d="M13.3452 26.7766H13.5137V27.377H13.3452V26.7766Z" fill="#E39400"/>
<path fill-rule="evenodd" clip-rule="evenodd" d="M13.6538 26.7766H13.8195V27.377H13.6538V26.7766Z" fill="#E39400"/>
<path fill-rule="evenodd" clip-rule="evenodd" d="M13.9614 26.7766H14.1299V27.377H13.9614V26.7766Z" fill="#E39400"/>
<path fill-rule="evenodd" clip-rule="evenodd" d="M14.2695 26.7766H14.4352V27.377H14.2695V26.7766Z" fill="#E39400"/>
<path fill-rule="evenodd" clip-rule="evenodd" d="M14.5771 26.7766H14.7428V27.377H14.5771V26.7766Z" fill="#E39400"/>
<path fill-rule="evenodd" clip-rule="evenodd" d="M14.8853 26.7766H15.051V27.377H14.8853V26.7766Z" fill="#E39400"/>
<path fill-rule="evenodd" clip-rule="evenodd" d="M15.1929 26.7766H15.3586V27.377H15.1929V26.7766Z" fill="#E39400"/>
<path fill-rule="evenodd" clip-rule="evenodd" d="M15.5015 26.7766H15.6672V27.377H15.5015V26.7766Z" fill="#E39400"/>
<path d="M15.9775 26.7766H15.8096V27.3775H15.9775V26.7766Z" fill="#E39400"/>
<path d="M16.1155 26.6226H12.3066V26.701H16.1155V26.6226Z" fill="#FFCC00"/>
<path d="M16.1155 27.4534H12.3066V27.5318H16.1155V27.4534Z" fill="#F5AC00"/>
<path d="M16.3279 25.7129H12.519V26.622H16.3279V25.7129Z" fill="#FFBB00"/>
<path d="M12.8027 25.8674H12.6348V26.4684H12.8027V25.8674Z" fill="#E39400"/>
<path fill-rule="evenodd" clip-rule="evenodd" d="M12.9429 25.8687H13.1086V26.4696H12.9429V25.8687Z" fill="#E39400"/>
<path fill-rule="evenodd" clip-rule="evenodd" d="M13.2505 25.8687H13.4162V26.4696H13.2505V25.8687Z" fill="#E39400"/>
<path fill-rule="evenodd" clip-rule="evenodd" d="M13.5586 25.8687H13.7243V26.4696H13.5586V25.8687Z" fill="#E39400"/>
<path fill-rule="evenodd" clip-rule="evenodd" d="M13.8662 25.8687H14.0319V26.4696H13.8662V25.8687Z" fill="#E39400"/>
<path fill-rule="evenodd" clip-rule="evenodd" d="M14.1738 25.8687H14.3423V26.4696H14.1738V25.8687Z" fill="#E39400"/>
<path fill-rule="evenodd" clip-rule="evenodd" d="M14.4824 25.8687H14.6481V26.4696H14.4824V25.8687Z" fill="#E39400"/>
<path fill-rule="evenodd" clip-rule="evenodd" d="M14.7896 25.8687H14.958V26.4696H14.7896V25.8687Z" fill="#E39400"/>
<path fill-rule="evenodd" clip-rule="evenodd" d="M15.0981 25.8687H15.2638V26.4696H15.0981V25.8687Z" fill="#E39400"/>
<path fill-rule="evenodd" clip-rule="evenodd" d="M15.4058 25.8687H15.5715V26.4696H15.4058V25.8687Z" fill="#E39400"/>
<path fill-rule="evenodd" clip-rule="evenodd" d="M15.7139 25.8687H15.8796V26.4696H15.7139V25.8687Z" fill="#E39400"/>
<path d="M16.1899 25.8674H16.022V26.4684H16.1899V25.8674Z" fill="#E39400"/>
<path d="M16.3279 25.7129H12.519V25.7913H16.3279V25.7129Z" fill="#FFCC00"/>
<path d="M16.3279 26.5442H12.519V26.6226H16.3279V26.5442Z" fill="#F5AC00"/>
<path d="M16.1589 24.8037H12.3501V25.7128H16.1589V24.8037Z" fill="#FFBB00"/>
<path d="M12.6337 24.958H12.4658V25.5589H12.6337V24.958Z" fill="#E39400"/>
<path fill-rule="evenodd" clip-rule="evenodd" d="M12.7734 24.958H12.9391V25.5584H12.7734V24.958Z" fill="#E39400"/>
<path fill-rule="evenodd" clip-rule="evenodd" d="M13.0815 24.958H13.2472V25.5584H13.0815V24.958Z" fill="#E39400"/>
<path fill-rule="evenodd" clip-rule="evenodd" d="M13.3892 24.958H13.5549V25.5584H13.3892V24.958Z" fill="#E39400"/>
<path fill-rule="evenodd" clip-rule="evenodd" d="M13.6978 24.958H13.8635V25.5584H13.6978V24.958Z" fill="#E39400"/>
<path fill-rule="evenodd" clip-rule="evenodd" d="M14.0049 24.958H14.1706V25.5584H14.0049V24.958Z" fill="#E39400"/>
<path fill-rule="evenodd" clip-rule="evenodd" d="M14.313 24.958H14.4787V25.5584H14.313V24.958Z" fill="#E39400"/>
<path fill-rule="evenodd" clip-rule="evenodd" d="M14.6211 24.958H14.7868V25.5584H14.6211V24.958Z" fill="#E39400"/>
<path fill-rule="evenodd" clip-rule="evenodd" d="M14.9292 24.958H15.0949V25.5584H14.9292V24.958Z" fill="#E39400"/>
<path fill-rule="evenodd" clip-rule="evenodd" d="M15.2368 24.958H15.4025V25.5584H15.2368V24.958Z" fill="#E39400"/>
<path fill-rule="evenodd" clip-rule="evenodd" d="M15.5449 24.958H15.7106V25.5584H15.5449V24.958Z" fill="#E39400"/>
<path d="M16.0204 24.958H15.8525V25.5589H16.0204V24.958Z" fill="#E39400"/>
<path d="M16.1589 24.8037H12.3501V24.8821H16.1589V24.8037Z" fill="#FFCC00"/>
<path d="M16.1589 25.6343H12.3501V25.7127H16.1589V25.6343Z" fill="#F5AC00"/>
<path d="M15.9407 23.8945H12.1318V24.8037H15.9407V23.8945Z" fill="#FFBB00"/>
<path d="M12.4155 24.0486H12.2476V24.6495H12.4155V24.0486Z" fill="#E39400"/>
<path fill-rule="evenodd" clip-rule="evenodd" d="M12.5552 24.0486H12.7209V24.649H12.5552V24.0486Z" fill="#E39400"/>
<path fill-rule="evenodd" clip-rule="evenodd" d="M12.8633 24.0486H13.029V24.649H12.8633V24.0486Z" fill="#E39400"/>
<path d="M13.255 24.774C13.3206 24.774 13.3737 24.5839 13.3737 24.3493C13.3737 24.1147 13.3206 23.9246 13.255 23.9246C13.1894 23.9246 13.1362 24.1147 13.1362 24.3493C13.1362 24.5839 13.1894 24.774 13.255 24.774Z" fill="#E39400"/>
<path fill-rule="evenodd" clip-rule="evenodd" d="M13.4771 24.0486H13.6427V24.649H13.4771V24.0486Z" fill="#E39400"/>
<path fill-rule="evenodd" clip-rule="evenodd" d="M13.7866 24.0486H13.9523V24.649H13.7866V24.0486Z" fill="#E39400"/>
<path d="M14.1788 24.774C14.2444 24.774 14.2976 24.5839 14.2976 24.3493C14.2976 24.1147 14.2444 23.9246 14.1788 23.9246C14.1132 23.9246 14.0601 24.1147 14.0601 24.3493C14.0601 24.5839 14.1132 24.774 14.1788 24.774Z" fill="#E39400"/>
<path fill-rule="evenodd" clip-rule="evenodd" d="M14.4028 24.0486H14.5685V24.649H14.4028V24.0486Z" fill="#E39400"/>
<path fill-rule="evenodd" clip-rule="evenodd" d="M14.7104 24.0486H14.8789V24.649H14.7104V24.0486Z" fill="#E39400"/>
<path fill-rule="evenodd" clip-rule="evenodd" d="M15.0186 24.0486H15.1843V24.649H15.0186V24.0486Z" fill="#E39400"/>
<path fill-rule="evenodd" clip-rule="evenodd" d="M15.3262 24.0486H15.4919V24.649H15.3262V24.0486Z" fill="#E39400"/>
<path d="M15.8022 24.0486H15.6343V24.6495H15.8022V24.0486Z" fill="#E39400"/>
<path d="M15.9407 23.8945H12.1318V23.973H15.9407V23.8945Z" fill="#FFCC00"/>
<path d="M15.9407 24.7253H12.1318V24.8038H15.9407V24.7253Z" fill="#F5AC00"/>
<path d="M15.7922 22.9851H11.9834V23.8942H15.7922V22.9851Z" fill="#FFBB00"/>
<path d="M12.2665 23.1394H12.0986V23.7403H12.2665V23.1394Z" fill="#E39400"/>
<path fill-rule="evenodd" clip-rule="evenodd" d="M12.4072 23.1392H12.5729V23.7401H12.4072V23.1392Z" fill="#E39400"/>
<path fill-rule="evenodd" clip-rule="evenodd" d="M12.7148 23.1392H12.8805V23.7401H12.7148V23.1392Z" fill="#E39400"/>
<path fill-rule="evenodd" clip-rule="evenodd" d="M13.0229 23.1392H13.1886V23.7401H13.0229V23.1392Z" fill="#E39400"/>
<path fill-rule="evenodd" clip-rule="evenodd" d="M13.3306 23.1392H13.4963V23.7401H13.3306V23.1392Z" fill="#E39400"/>
<path fill-rule="evenodd" clip-rule="evenodd" d="M13.6387 23.1392H13.8044V23.7401H13.6387V23.1392Z" fill="#E39400"/>
<path fill-rule="evenodd" clip-rule="evenodd" d="M13.9463 23.1392H14.112V23.7401H13.9463V23.1392Z" fill="#E39400"/>
<path fill-rule="evenodd" clip-rule="evenodd" d="M14.2549 23.1392H14.4206V23.7401H14.2549V23.1392Z" fill="#E39400"/>
<path fill-rule="evenodd" clip-rule="evenodd" d="M14.5625 23.1392H14.7282V23.7401H14.5625V23.1392Z" fill="#E39400"/>
<path fill-rule="evenodd" clip-rule="evenodd" d="M14.8701 23.1392H15.0358V23.7401H14.8701V23.1392Z" fill="#E39400"/>
<path fill-rule="evenodd" clip-rule="evenodd" d="M15.1782 23.1392H15.3439V23.7401H15.1782V23.1392Z" fill="#E39400"/>
<path d="M15.6542 23.1394H15.4863V23.7403H15.6542V23.1394Z" fill="#E39400"/>
<path d="M15.7922 22.9851H11.9834V23.0635H15.7922V22.9851Z" fill="#FFCC00"/>
<path d="M15.7922 23.8162H11.9834V23.8946H15.7922V23.8162Z" fill="#F5AC00"/>
<path d="M16.0539 22.0757H12.2451V22.9848H16.0539V22.0757Z" fill="#FFBB00"/>
<path d="M12.5287 22.23H12.3608V22.8309H12.5287V22.23Z" fill="#E39400"/>
<path fill-rule="evenodd" clip-rule="evenodd" d="M12.6685 22.23H12.8342V22.8309H12.6685V22.23Z" fill="#E39400"/>
<path fill-rule="evenodd" clip-rule="evenodd" d="M12.9766 22.23H13.1423V22.8309H12.9766V22.23Z" fill="#E39400"/>
<path fill-rule="evenodd" clip-rule="evenodd" d="M13.2842 22.23H13.4499V22.8309H13.2842V22.23Z" fill="#E39400"/>
<path fill-rule="evenodd" clip-rule="evenodd" d="M13.5923 22.23H13.758V22.8309H13.5923V22.23Z" fill="#E39400"/>
<path fill-rule="evenodd" clip-rule="evenodd" d="M13.8999 22.23H14.0656V22.8309H13.8999V22.23Z" fill="#E39400"/>
<path fill-rule="evenodd" clip-rule="evenodd" d="M14.2085 22.23H14.3742V22.8309H14.2085V22.23Z" fill="#E39400"/>
<path fill-rule="evenodd" clip-rule="evenodd" d="M14.5156 22.23H14.6813V22.8309H14.5156V22.23Z" fill="#E39400"/>
<path fill-rule="evenodd" clip-rule="evenodd" d="M14.8242 22.23H14.9899V22.8309H14.8242V22.23Z" fill="#E39400"/>
<path fill-rule="evenodd" clip-rule="evenodd" d="M15.1338 22.23H15.2995V22.8309H15.1338V22.23Z" fill="#E39400"/>
<path fill-rule="evenodd" clip-rule="evenodd" d="M15.4399 22.23H15.6056V22.8309H15.4399V22.23Z" fill="#E39400"/>
<path d="M15.9155 22.23H15.7476V22.8309H15.9155V22.23Z" fill="#E39400"/>
<path d="M16.0539 22.0757H12.2451V22.1541H16.0539V22.0757Z" fill="#FFCC00"/>
<path d="M16.0539 22.9067H12.2451V22.9852H16.0539V22.9067Z" fill="#F5AC00"/>
<path d="M16.074 21.1665H12.2651V22.0756H16.074V21.1665Z" fill="#FFBB00"/>
<path d="M15.9584 21.3206H15.7905V21.9215H15.9584V21.3206Z" fill="#E39400"/>
<path fill-rule="evenodd" clip-rule="evenodd" d="M15.651 21.3206H15.4854V21.9209H15.651V21.3206Z" fill="#E39400"/>
<path fill-rule="evenodd" clip-rule="evenodd" d="M15.3429 21.3206H15.1772V21.9209H15.3429V21.3206Z" fill="#E39400"/>
<path fill-rule="evenodd" clip-rule="evenodd" d="M15.0353 21.3206H14.8696V21.9209H15.0353V21.3206Z" fill="#E39400"/>
<path fill-rule="evenodd" clip-rule="evenodd" d="M14.7267 21.3206H14.561V21.9209H14.7267V21.3206Z" fill="#E39400"/>
<path fill-rule="evenodd" clip-rule="evenodd" d="M14.4191 21.3206H14.2534V21.9209H14.4191V21.3206Z" fill="#E39400"/>
<path fill-rule="evenodd" clip-rule="evenodd" d="M14.111 21.3206H13.9453V21.9209H14.111V21.3206Z" fill="#E39400"/>
<path fill-rule="evenodd" clip-rule="evenodd" d="M13.8034 21.3206H13.6377V21.9209H13.8034V21.3206Z" fill="#E39400"/>
<path fill-rule="evenodd" clip-rule="evenodd" d="M13.4953 21.3206H13.3296V21.9209H13.4953V21.3206Z" fill="#E39400"/>
<path fill-rule="evenodd" clip-rule="evenodd" d="M13.1877 21.3206H13.022V21.9209H13.1877V21.3206Z" fill="#E39400"/>
<path fill-rule="evenodd" clip-rule="evenodd" d="M12.8796 21.3206H12.7139V21.9209H12.8796V21.3206Z" fill="#E39400"/>
<path d="M12.5717 21.3206H12.4038V21.9215H12.5717V21.3206Z" fill="#E39400"/>
<path d="M16.074 21.1665H12.2651V21.2449H16.074V21.1665Z" fill="#FFCC00"/>
<path d="M16.074 21.9973H12.2651V22.0757H16.074V21.9973Z" fill="#F5AC00"/>
<path d="M15.8127 20.2571H12.0039V21.1662H15.8127V20.2571Z" fill="#FFBB00"/>
<path d="M15.6972 20.4119H15.5293V21.0128H15.6972V20.4119Z" fill="#E39400"/>
<path fill-rule="evenodd" clip-rule="evenodd" d="M15.3893 20.4111H15.2236V21.0121H15.3893V20.4111Z" fill="#E39400"/>
<path fill-rule="evenodd" clip-rule="evenodd" d="M15.0817 20.4111H14.916V21.0121H15.0817V20.4111Z" fill="#E39400"/>
<path fill-rule="evenodd" clip-rule="evenodd" d="M14.7731 20.4111H14.6074V21.0121H14.7731V20.4111Z" fill="#E39400"/>
<path fill-rule="evenodd" clip-rule="evenodd" d="M14.4655 20.4111H14.2998V21.0121H14.4655V20.4111Z" fill="#E39400"/>
<path fill-rule="evenodd" clip-rule="evenodd" d="M14.1574 20.4111H13.9917V21.0121H14.1574V20.4111Z" fill="#E39400"/>
<path fill-rule="evenodd" clip-rule="evenodd" d="M13.8498 20.4111H13.6841V21.0121H13.8498V20.4111Z" fill="#E39400"/>
<path fill-rule="evenodd" clip-rule="evenodd" d="M13.5417 20.4111H13.376V21.0121H13.5417V20.4111Z" fill="#E39400"/>
<path fill-rule="evenodd" clip-rule="evenodd" d="M13.2341 20.4111H13.0684V21.0121H13.2341V20.4111Z" fill="#E39400"/>
<path fill-rule="evenodd" clip-rule="evenodd" d="M12.9245 20.4111H12.7588V21.0121H12.9245V20.4111Z" fill="#E39400"/>
<path fill-rule="evenodd" clip-rule="evenodd" d="M12.6183 20.4111H12.4526V21.0121H12.6183V20.4111Z" fill="#E39400"/>
<path d="M12.3105 20.4119H12.1426V21.0128H12.3105V20.4119Z" fill="#E39400"/>
<path d="M15.8127 20.2571H12.0039V20.3355H15.8127V20.2571Z" fill="#FFCC00"/>
<path d="M15.8127 21.0881H12.0039V21.1666H15.8127V21.0881Z" fill="#F5AC00"/>
<path d="M21.0266 26.6226H17.2178V27.5317H21.0266V26.6226Z" fill="#FFBB00"/>
<path d="M17.5014 26.7766H17.3335V27.3775H17.5014V26.7766Z" fill="#E39400"/>
<path fill-rule="evenodd" clip-rule="evenodd" d="M17.6411 26.7766H17.8068V27.377H17.6411V26.7766Z" fill="#E39400"/>
<path fill-rule="evenodd" clip-rule="evenodd" d="M17.9507 26.7766H18.1164V27.377H17.9507V26.7766Z" fill="#E39400"/>
<path fill-rule="evenodd" clip-rule="evenodd" d="M18.2568 26.7766H18.4225V27.377H18.2568V26.7766Z" fill="#E39400"/>
<path fill-rule="evenodd" clip-rule="evenodd" d="M18.5645 26.7766H18.7302V27.377H18.5645V26.7766Z" fill="#E39400"/>
<path fill-rule="evenodd" clip-rule="evenodd" d="M18.8726 26.7766H19.0383V27.377H18.8726V26.7766Z" fill="#E39400"/>
<path fill-rule="evenodd" clip-rule="evenodd" d="M19.1802 26.7766H19.3459V27.377H19.1802V26.7766Z" fill="#E39400"/>
<path fill-rule="evenodd" clip-rule="evenodd" d="M19.4883 26.7766H19.654V27.377H19.4883V26.7766Z" fill="#E39400"/>
<path fill-rule="evenodd" clip-rule="evenodd" d="M19.7964 26.7766H19.9621V27.377H19.7964V26.7766Z" fill="#E39400"/>
<path fill-rule="evenodd" clip-rule="evenodd" d="M20.105 26.7766H20.2707V27.377H20.105V26.7766Z" fill="#E39400"/>
<path fill-rule="evenodd" clip-rule="evenodd" d="M20.4116 26.7766H20.5773V27.377H20.4116V26.7766Z" fill="#E39400"/>
<path d="M20.8881 26.7766H20.7202V27.3775H20.8881V26.7766Z" fill="#E39400"/>
<path d="M21.0266 26.6226H17.2178V26.701H21.0266V26.6226Z" fill="#FFCC00"/>
<path d="M21.0266 27.4534H17.2178V27.5318H21.0266V27.4534Z" fill="#F5AC00"/>
<path d="M20.3992 25.7129H16.5903V26.622H20.3992V25.7129Z" fill="#FFBB00"/>
<path d="M16.874 25.8674H16.7061V26.4684H16.874V25.8674Z" fill="#E39400"/>
<path fill-rule="evenodd" clip-rule="evenodd" d="M17.0117 25.8687H17.1774V26.4696H17.0117V25.8687Z" fill="#E39400"/>
<path fill-rule="evenodd" clip-rule="evenodd" d="M17.3218 25.8687H17.4875V26.4696H17.3218V25.8687Z" fill="#E39400"/>
<path fill-rule="evenodd" clip-rule="evenodd" d="M17.6299 25.8687H17.7956V26.4696H17.6299V25.8687Z" fill="#E39400"/>
<path fill-rule="evenodd" clip-rule="evenodd" d="M17.9375 25.8687H18.1032V26.4696H17.9375V25.8687Z" fill="#E39400"/>
<path fill-rule="evenodd" clip-rule="evenodd" d="M18.2451 25.8687H18.4136V26.4696H18.2451V25.8687Z" fill="#E39400"/>
<path fill-rule="evenodd" clip-rule="evenodd" d="M18.5532 25.8687H18.7189V26.4696H18.5532V25.8687Z" fill="#E39400"/>
<path fill-rule="evenodd" clip-rule="evenodd" d="M18.8613 25.8687H19.027V26.4696H18.8613V25.8687Z" fill="#E39400"/>
<path fill-rule="evenodd" clip-rule="evenodd" d="M19.1694 25.8687H19.3351V26.4696H19.1694V25.8687Z" fill="#E39400"/>
<path fill-rule="evenodd" clip-rule="evenodd" d="M19.4771 25.8687H19.6427V26.4696H19.4771V25.8687Z" fill="#E39400"/>
<path fill-rule="evenodd" clip-rule="evenodd" d="M19.7852 25.8687H19.9509V26.4696H19.7852V25.8687Z" fill="#E39400"/>
<path d="M20.2612 25.8674H20.0933V26.4684H20.2612V25.8674Z" fill="#E39400"/>
<path d="M20.3992 25.7129H16.5903V25.7913H20.3992V25.7129Z" fill="#FFCC00"/>
<path d="M20.3992 26.5442H16.5903V26.6226H20.3992V26.5442Z" fill="#F5AC00"/>
<path d="M20.6931 24.8037H16.8843V25.7128H20.6931V24.8037Z" fill="#FFBB00"/>
<path d="M17.1674 24.958H16.9995V25.5589H17.1674V24.958Z" fill="#E39400"/>
<path fill-rule="evenodd" clip-rule="evenodd" d="M17.3071 24.958H17.4728V25.5584H17.3071V24.958Z" fill="#E39400"/>
<path fill-rule="evenodd" clip-rule="evenodd" d="M17.6157 24.958H17.7814V25.5584H17.6157V24.958Z" fill="#E39400"/>
<path fill-rule="evenodd" clip-rule="evenodd" d="M17.9233 24.958H18.089V25.5584H17.9233V24.958Z" fill="#E39400"/>
<path fill-rule="evenodd" clip-rule="evenodd" d="M18.2314 24.958H18.3971V25.5584H18.2314V24.958Z" fill="#E39400"/>
<path fill-rule="evenodd" clip-rule="evenodd" d="M18.5391 24.958H18.7048V25.5584H18.5391V24.958Z" fill="#E39400"/>
<path fill-rule="evenodd" clip-rule="evenodd" d="M18.8472 24.958H19.0129V25.5584H18.8472V24.958Z" fill="#E39400"/>
<path fill-rule="evenodd" clip-rule="evenodd" d="M19.1548 24.958H19.3205V25.5584H19.1548V24.958Z" fill="#E39400"/>
<path fill-rule="evenodd" clip-rule="evenodd" d="M19.4629 24.958H19.6286V25.5584H19.4629V24.958Z" fill="#E39400"/>
<path fill-rule="evenodd" clip-rule="evenodd" d="M19.7734 24.958H19.9391V25.5584H19.7734V24.958Z" fill="#E39400"/>
<path fill-rule="evenodd" clip-rule="evenodd" d="M20.0786 24.958H20.2443V25.5584H20.0786V24.958Z" fill="#E39400"/>
<path d="M20.5546 24.958H20.3867V25.5589H20.5546V24.958Z" fill="#E39400"/>
<path d="M20.6931 24.8037H16.8843V24.8821H20.6931V24.8037Z" fill="#FFCC00"/>
<path d="M20.6931 25.6343H16.8843V25.7127H20.6931V25.6343Z" fill="#F5AC00"/>
<path d="M20.8518 23.8945H17.043V24.8037H20.8518V23.8945Z" fill="#FFBB00"/>
<path d="M17.3261 24.0486H17.1582V24.6495H17.3261V24.0486Z" fill="#E39400"/>
<path fill-rule="evenodd" clip-rule="evenodd" d="M17.4658 24.0486H17.6315V24.649H17.4658V24.0486Z" fill="#E39400"/>
<path d="M17.858 24.774C17.9236 24.774 17.9768 24.5839 17.9768 24.3493C17.9768 24.1147 17.9236 23.9246 17.858 23.9246C17.7924 23.9246 17.7393 24.1147 17.7393 24.3493C17.7393 24.5839 17.7924 24.774 17.858 24.774Z" fill="#E39400"/>
<path fill-rule="evenodd" clip-rule="evenodd" d="M18.082 24.0486H18.2477V24.649H18.082V24.0486Z" fill="#E39400"/>
<path d="M18.4737 24.774C18.5393 24.774 18.5925 24.5839 18.5925 24.3493C18.5925 24.1147 18.5393 23.9246 18.4737 23.9246C18.4081 23.9246 18.355 24.1147 18.355 24.3493C18.355 24.5839 18.4081 24.774 18.4737 24.774Z" fill="#E39400"/>
<path fill-rule="evenodd" clip-rule="evenodd" d="M18.6982 24.0486H18.8639V24.649H18.6982V24.0486Z" fill="#E39400"/>
<path fill-rule="evenodd" clip-rule="evenodd" d="M19.0059 24.0486H19.1716V24.649H19.0059V24.0486Z" fill="#E39400"/>
<path fill-rule="evenodd" clip-rule="evenodd" d="M19.3135 24.0486H19.4792V24.649H19.3135V24.0486Z" fill="#E39400"/>
<path fill-rule="evenodd" clip-rule="evenodd" d="M19.6216 24.0486H19.7873V24.649H19.6216V24.0486Z" fill="#E39400"/>
<path fill-rule="evenodd" clip-rule="evenodd" d="M19.9292 24.0486H20.0977V24.649H19.9292V24.0486Z" fill="#E39400"/>
<path d="M20.3214 24.774C20.387 24.774 20.4401 24.5839 20.4401 24.3493C20.4401 24.1147 20.387 23.9246 20.3214 23.9246C20.2558 23.9246 20.2026 24.1147 20.2026 24.3493C20.2026 24.5839 20.2558 24.774 20.3214 24.774Z" fill="#E39400"/>
<path d="M20.7128 24.0486H20.5449V24.6495H20.7128V24.0486Z" fill="#E39400"/>
<path d="M20.8518 23.8945H17.043V23.973H20.8518V23.8945Z" fill="#FFCC00"/>
<path d="M20.8518 24.7253H17.043V24.8038H20.8518V24.7253Z" fill="#F5AC00"/>
<path d="M20.7038 22.9851H16.895V23.8942H20.7038V22.9851Z" fill="#FFBB00"/>
<path d="M17.1782 23.1394H17.0103V23.7403H17.1782V23.1394Z" fill="#E39400"/>
<path fill-rule="evenodd" clip-rule="evenodd" d="M17.3179 23.1392H17.4836V23.7401H17.3179V23.1392Z" fill="#E39400"/>
<path fill-rule="evenodd" clip-rule="evenodd" d="M17.6255 23.1392H17.7939V23.7401H17.6255V23.1392Z" fill="#E39400"/>
<path fill-rule="evenodd" clip-rule="evenodd" d="M17.9336 23.1392H18.0993V23.7401H17.9336V23.1392Z" fill="#E39400"/>
<path fill-rule="evenodd" clip-rule="evenodd" d="M18.2412 23.1392H18.4097V23.7401H18.2412V23.1392Z" fill="#E39400"/>
<path fill-rule="evenodd" clip-rule="evenodd" d="M18.5493 23.1392H18.715V23.7401H18.5493V23.1392Z" fill="#E39400"/>
<path fill-rule="evenodd" clip-rule="evenodd" d="M18.8569 23.1392H19.0226V23.7401H18.8569V23.1392Z" fill="#E39400"/>
<path fill-rule="evenodd" clip-rule="evenodd" d="M19.166 23.1392H19.3317V23.7401H19.166V23.1392Z" fill="#E39400"/>
<path fill-rule="evenodd" clip-rule="evenodd" d="M19.4731 23.1392H19.6388V23.7401H19.4731V23.1392Z" fill="#E39400"/>
<path fill-rule="evenodd" clip-rule="evenodd" d="M19.7812 23.1392H19.9469V23.7401H19.7812V23.1392Z" fill="#E39400"/>
<path fill-rule="evenodd" clip-rule="evenodd" d="M20.0889 23.1392H20.2546V23.7401H20.0889V23.1392Z" fill="#E39400"/>
<path d="M20.5649 23.1394H20.397V23.7403H20.5649V23.1394Z" fill="#E39400"/>
<path d="M20.7038 22.9851H16.895V23.0635H20.7038V22.9851Z" fill="#FFCC00"/>
<path d="M20.7038 23.8162H16.895V23.8946H20.7038V23.8162Z" fill="#F5AC00"/>
<path d="M11.6907 26.6226H7.88184V27.5317H11.6907V26.6226Z" fill="#FFBB00"/>
<path d="M8.16595 26.7766H7.99805V27.3775H8.16595V26.7766Z" fill="#E39400"/>
<path fill-rule="evenodd" clip-rule="evenodd" d="M8.30566 26.7766H8.47136V27.377H8.30566V26.7766Z" fill="#E39400"/>
<path fill-rule="evenodd" clip-rule="evenodd" d="M8.61328 26.7766H8.77898V27.377H8.61328V26.7766Z" fill="#E39400"/>
<path fill-rule="evenodd" clip-rule="evenodd" d="M8.92139 26.7766H9.08708V27.377H8.92139V26.7766Z" fill="#E39400"/>
<path fill-rule="evenodd" clip-rule="evenodd" d="M9.229 26.7766H9.3947V27.377H9.229V26.7766Z" fill="#E39400"/>
<path fill-rule="evenodd" clip-rule="evenodd" d="M9.53711 26.7766H9.70281V27.377H9.53711V26.7766Z" fill="#E39400"/>
<path fill-rule="evenodd" clip-rule="evenodd" d="M9.84521 26.7766H10.0109V27.377H9.84521V26.7766Z" fill="#E39400"/>
<path fill-rule="evenodd" clip-rule="evenodd" d="M10.1533 26.7766H10.319V27.377H10.1533V26.7766Z" fill="#E39400"/>
<path fill-rule="evenodd" clip-rule="evenodd" d="M10.4609 26.7766H10.6266V27.377H10.4609V26.7766Z" fill="#E39400"/>
<path fill-rule="evenodd" clip-rule="evenodd" d="M10.7705 26.7766H10.9362V27.377H10.7705V26.7766Z" fill="#E39400"/>
<path fill-rule="evenodd" clip-rule="evenodd" d="M11.0767 26.7766H11.2424V27.377H11.0767V26.7766Z" fill="#E39400"/>
<path d="M11.5527 26.7766H11.3848V27.3775H11.5527V26.7766Z" fill="#E39400"/>
<path d="M11.6907 26.6226H7.88184V26.701H11.6907V26.6226Z" fill="#FFCC00"/>
<path d="M11.6907 27.4534H7.88184V27.5318H11.6907V27.4534Z" fill="#F5AC00"/>
<path d="M11.865 25.7129H8.05615V26.622H11.865V25.7129Z" fill="#FFBB00"/>
<path d="M8.33929 25.8674H8.17139V26.4684H8.33929V25.8674Z" fill="#E39400"/>
<path fill-rule="evenodd" clip-rule="evenodd" d="M8.479 25.8687H8.6447V26.4696H8.479V25.8687Z" fill="#E39400"/>
<path fill-rule="evenodd" clip-rule="evenodd" d="M8.78711 25.8687H8.95281V26.4696H8.78711V25.8687Z" fill="#E39400"/>
<path fill-rule="evenodd" clip-rule="evenodd" d="M9.09473 25.8687H9.26042V26.4696H9.09473V25.8687Z" fill="#E39400"/>
<path fill-rule="evenodd" clip-rule="evenodd" d="M9.40283 25.8687H9.56853V26.4696H9.40283V25.8687Z" fill="#E39400"/>
<path fill-rule="evenodd" clip-rule="evenodd" d="M9.71094 25.8687H9.87663V26.4696H9.71094V25.8687Z" fill="#E39400"/>
<path fill-rule="evenodd" clip-rule="evenodd" d="M10.019 25.8687H10.1847V26.4696H10.019V25.8687Z" fill="#E39400"/>
<path fill-rule="evenodd" clip-rule="evenodd" d="M10.3286 25.8687H10.4943V26.4696H10.3286V25.8687Z" fill="#E39400"/>
<path fill-rule="evenodd" clip-rule="evenodd" d="M10.6348 25.8687H10.8005V26.4696H10.6348V25.8687Z" fill="#E39400"/>
<path fill-rule="evenodd" clip-rule="evenodd" d="M10.9424 25.8687H11.1081V26.4696H10.9424V25.8687Z" fill="#E39400"/>
<path fill-rule="evenodd" clip-rule="evenodd" d="M11.2505 25.8687H11.4162V26.4696H11.2505V25.8687Z" fill="#E39400"/>
<path d="M11.726 25.8674H11.5581V26.4684H11.726V25.8674Z" fill="#E39400"/>
<path d="M11.865 25.7129H8.05615V25.7913H11.865V25.7129Z" fill="#FFCC00"/>
<path d="M11.865 26.5442H8.05615V26.6226H11.865V26.5442Z" fill="#F5AC00"/>
<path d="M11.6321 24.8037H7.82324V25.7128H11.6321V24.8037Z" fill="#FFBB00"/>
<path d="M8.10687 24.958H7.93896V25.5589H8.10687V24.958Z" fill="#E39400"/>
<path fill-rule="evenodd" clip-rule="evenodd" d="M8.24707 24.958H8.41277V25.5584H8.24707V24.958Z" fill="#E39400"/>
<path fill-rule="evenodd" clip-rule="evenodd" d="M8.55469 24.958H8.72038V25.5584H8.55469V24.958Z" fill="#E39400"/>
<path fill-rule="evenodd" clip-rule="evenodd" d="M8.86279 24.958H9.02849V25.5584H8.86279V24.958Z" fill="#E39400"/>
<path fill-rule="evenodd" clip-rule="evenodd" d="M9.16895 24.958H9.33464V25.5584H9.16895V24.958Z" fill="#E39400"/>
<path fill-rule="evenodd" clip-rule="evenodd" d="M9.479 24.958H9.6447V25.5584H9.479V24.958Z" fill="#E39400"/>
<path fill-rule="evenodd" clip-rule="evenodd" d="M9.78613 24.958H9.95183V25.5584H9.78613V24.958Z" fill="#E39400"/>
<path fill-rule="evenodd" clip-rule="evenodd" d="M10.0947 24.958H10.2604V25.5584H10.0947V24.958Z" fill="#E39400"/>
<path fill-rule="evenodd" clip-rule="evenodd" d="M10.4019 24.958H10.5676V25.5584H10.4019V24.958Z" fill="#E39400"/>
<path fill-rule="evenodd" clip-rule="evenodd" d="M10.7104 24.958H10.8761V25.5584H10.7104V24.958Z" fill="#E39400"/>
<path fill-rule="evenodd" clip-rule="evenodd" d="M11.0181 24.958H11.1838V25.5584H11.0181V24.958Z" fill="#E39400"/>
<path d="M11.4941 24.958H11.3262V25.5589H11.4941V24.958Z" fill="#E39400"/>
<path d="M11.6321 24.8037H7.82324V24.8821H11.6321V24.8037Z" fill="#FFCC00"/>
<path d="M11.6321 25.6343H7.82324V25.7127H11.6321V25.6343Z" fill="#F5AC00"/>
<path d="M11.8103 23.8945H8.00146V24.8037H11.8103V23.8945Z" fill="#FFBB00"/>
<path d="M8.28461 24.0486H8.1167V24.6495H8.28461V24.0486Z" fill="#E39400"/>
<path fill-rule="evenodd" clip-rule="evenodd" d="M8.42432 24.0486H8.59001V24.649H8.42432V24.0486Z" fill="#E39400"/>
<path fill-rule="evenodd" clip-rule="evenodd" d="M8.73242 24.0486H8.89812V24.649H8.73242V24.0486Z" fill="#E39400"/>
<path fill-rule="evenodd" clip-rule="evenodd" d="M9.04004 24.0486H9.20574V24.649H9.04004V24.0486Z" fill="#E39400"/>
<path fill-rule="evenodd" clip-rule="evenodd" d="M9.34814 24.0486H9.51384V24.649H9.34814V24.0486Z" fill="#E39400"/>
<path fill-rule="evenodd" clip-rule="evenodd" d="M9.65576 24.0486H9.82146V24.649H9.65576V24.0486Z" fill="#E39400"/>
<path fill-rule="evenodd" clip-rule="evenodd" d="M9.96436 24.0486H10.1301V24.649H9.96436V24.0486Z" fill="#E39400"/>
<path fill-rule="evenodd" clip-rule="evenodd" d="M10.2734 24.0486H10.4391V24.649H10.2734V24.0486Z" fill="#E39400"/>
<path d="M10.6642 24.774C10.7297 24.774 10.7829 24.5839 10.7829 24.3493C10.7829 24.1147 10.7297 23.9246 10.6642 23.9246C10.5986 23.9246 10.5454 24.1147 10.5454 24.3493C10.5454 24.5839 10.5986 24.774 10.6642 24.774Z" fill="#E39400"/>
<path d="M10.9718 24.774C11.0374 24.774 11.0905 24.5839 11.0905 24.3493C11.0905 24.1147 11.0374 23.9246 10.9718 23.9246C10.9062 23.9246 10.853 24.1147 10.853 24.3493C10.853 24.5839 10.9062 24.774 10.9718 24.774Z" fill="#E39400"/>
<path fill-rule="evenodd" clip-rule="evenodd" d="M11.1953 24.0486H11.3638V24.649H11.1953V24.0486Z" fill="#E39400"/>
<path d="M11.6713 24.0486H11.5034V24.6495H11.6713V24.0486Z" fill="#E39400"/>
<path d="M11.8103 23.8945H8.00146V23.973H11.8103V23.8945Z" fill="#FFCC00"/>
<path d="M11.8103 24.7253H8.00146V24.8038H11.8103V24.7253Z" fill="#F5AC00"/>
<path d="M11.6062 22.9851H7.79736V23.8942H11.6062V22.9851Z" fill="#FFBB00"/>
<path d="M11.4907 23.1394H11.3228V23.7403H11.4907V23.1394Z" fill="#E39400"/>
<path fill-rule="evenodd" clip-rule="evenodd" d="M11.1828 23.1392H11.0171V23.7401H11.1828V23.1392Z" fill="#E39400"/>
<path fill-rule="evenodd" clip-rule="evenodd" d="M10.8752 23.1392H10.7095V23.7401H10.8752V23.1392Z" fill="#E39400"/>
<path fill-rule="evenodd" clip-rule="evenodd" d="M10.5674 23.1392H10.3989V23.7401H10.5674V23.1392Z" fill="#E39400"/>
<path fill-rule="evenodd" clip-rule="evenodd" d="M10.259 23.1392H10.0933V23.7401H10.259V23.1392Z" fill="#E39400"/>
<path fill-rule="evenodd" clip-rule="evenodd" d="M9.95085 23.1392H9.78516V23.7401H9.95085V23.1392Z" fill="#E39400"/>
<path fill-rule="evenodd" clip-rule="evenodd" d="M9.64324 23.1392H9.47754V23.7401H9.64324V23.1392Z" fill="#E39400"/>
<path fill-rule="evenodd" clip-rule="evenodd" d="M9.33464 23.1392H9.16895V23.7401H9.33464V23.1392Z" fill="#E39400"/>
<path fill-rule="evenodd" clip-rule="evenodd" d="M9.02751 23.1392H8.86182V23.7401H9.02751V23.1392Z" fill="#E39400"/>
<path fill-rule="evenodd" clip-rule="evenodd" d="M8.7199 23.1392H8.5542V23.7401H8.7199V23.1392Z" fill="#E39400"/>
<path fill-rule="evenodd" clip-rule="evenodd" d="M8.41179 23.1392H8.24609V23.7401H8.41179V23.1392Z" fill="#E39400"/>
<path d="M8.10394 23.1394H7.93604V23.7403H8.10394V23.1394Z" fill="#E39400"/>
<path d="M11.6062 22.9851H7.79736V23.0635H11.6062V22.9851Z" fill="#FFCC00"/>
<path d="M11.6062 23.8162H7.79736V23.8946H11.6062V23.8162Z" fill="#F5AC00"/>
<path d="M11.7922 22.0757H7.9834V22.9848H11.7922V22.0757Z" fill="#FFBB00"/>
<path d="M11.6772 22.23H11.5093V22.8309H11.6772V22.23Z" fill="#E39400"/>
<path fill-rule="evenodd" clip-rule="evenodd" d="M11.3693 22.23H11.2036V22.8309H11.3693V22.23Z" fill="#E39400"/>
<path fill-rule="evenodd" clip-rule="evenodd" d="M11.0612 22.23H10.8955V22.8309H11.0612V22.23Z" fill="#E39400"/>
<path fill-rule="evenodd" clip-rule="evenodd" d="M10.7536 22.23H10.5879V22.8309H10.7536V22.23Z" fill="#E39400"/>
<path fill-rule="evenodd" clip-rule="evenodd" d="M10.4455 22.23H10.2798V22.8309H10.4455V22.23Z" fill="#E39400"/>
<path fill-rule="evenodd" clip-rule="evenodd" d="M10.1379 22.23H9.97217V22.8309H10.1379V22.23Z" fill="#E39400"/>
<path fill-rule="evenodd" clip-rule="evenodd" d="M9.83171 22.23H9.66602V22.8309H9.83171V22.23Z" fill="#E39400"/>
<path fill-rule="evenodd" clip-rule="evenodd" d="M9.52165 22.23H9.35596V22.8309H9.52165V22.23Z" fill="#E39400"/>
<path fill-rule="evenodd" clip-rule="evenodd" d="M9.21355 22.23H9.04785V22.8309H9.21355V22.23Z" fill="#E39400"/>
<path fill-rule="evenodd" clip-rule="evenodd" d="M8.90593 22.23H8.74023V22.8309H8.90593V22.23Z" fill="#E39400"/>
<path fill-rule="evenodd" clip-rule="evenodd" d="M8.59783 22.23H8.43213V22.8309H8.59783V22.23Z" fill="#E39400"/>
<path d="M8.28998 22.23H8.12207V22.8309H8.28998V22.23Z" fill="#E39400"/>
<path d="M11.7922 22.0757H7.9834V22.1541H11.7922V22.0757Z" fill="#FFCC00"/>
<path d="M11.7922 22.9067H7.9834V22.9852H11.7922V22.9067Z" fill="#F5AC00"/>
</g>
<defs>
<clipPath id="clip0_466_2614">
<rect width="24.896" height="28.0359" fill="white"/>
</clipPath>
</defs>
</svg>
