<svg width="12" height="16" viewBox="0 0 12 16" fill="none" xmlns="http://www.w3.org/2000/svg">
<path d="M10.1444 -0.0359192H1.85868C1.22832 -0.0359192 0.71582 0.476581 0.71582 1.10694V14.8212C0.71582 15.4516 1.22832 15.9641 1.85868 15.9641H10.1444C10.7747 15.9641 11.2872 15.4516 11.2872 14.8212V1.10694C11.2872 0.476581 10.7747 -0.0359192 10.1444 -0.0359192ZM10.0015 14.6784H2.00153V1.2498H10.0015V14.6784ZM5.28725 12.8569C5.28725 13.0464 5.3625 13.2281 5.49646 13.362C5.63041 13.496 5.81209 13.5712 6.00153 13.5712C6.19098 13.5712 6.37266 13.496 6.50661 13.362C6.64057 13.2281 6.71582 13.0464 6.71582 12.8569C6.71582 12.6675 6.64057 12.4858 6.50661 12.3519C6.37266 12.2179 6.19098 12.1427 6.00153 12.1427C5.81209 12.1427 5.63041 12.2179 5.49646 12.3519C5.3625 12.4858 5.28725 12.6675 5.28725 12.8569Z" fill="#39B7E9"/>
</svg>
