<svg width="133" height="133" viewBox="0 0 133 133" fill="none" xmlns="http://www.w3.org/2000/svg">
<g filter="url(#filter0_d_466_5356)">
<path d="M66.5 9C57.501 9 48.704 11.6685 41.2216 16.6681C33.7391 21.6677 27.9073 28.7739 24.4635 37.0879C21.0197 45.4019 20.1187 54.5505 21.8743 63.3766C23.6299 72.2027 27.9634 80.3101 34.3267 86.6733C40.6899 93.0366 48.7973 97.3701 57.6234 99.1257C66.4495 100.881 75.5981 99.9803 83.9121 96.5365C92.2261 93.0927 99.3323 87.2609 104.332 79.7784C109.331 72.296 112 63.499 112 54.5C112 48.5248 110.823 42.6082 108.537 37.0879C106.25 31.5676 102.898 26.5517 98.6734 22.3266C94.4483 18.1016 89.4324 14.7501 83.9121 12.4635C78.3918 10.1769 72.4752 9 66.5 9ZM86.065 43.6255L65.2715 70.9255C64.8476 71.4761 64.3033 71.9223 63.6802 72.2299C63.0571 72.5375 62.3719 72.6983 61.677 72.7C60.9859 72.7037 60.303 72.5499 59.6802 72.2504C59.0574 71.9508 58.511 71.5132 58.0825 70.971L46.9805 56.8205C46.613 56.3485 46.3421 55.8087 46.1833 55.2319C46.0244 54.6552 45.9807 54.0528 46.0547 53.4592C46.1286 52.8656 46.3187 52.2923 46.6142 51.7722C46.9097 51.2521 47.3047 50.7952 47.7768 50.4277C48.7301 49.6856 49.9392 49.3526 51.1381 49.5019C51.7317 49.5758 52.3049 49.766 52.8251 50.0614C53.3452 50.3569 53.802 50.7519 54.1695 51.224L61.586 60.688L78.785 37.938C79.1495 37.46 79.6046 37.0584 80.1242 36.7563C80.6439 36.4542 81.218 36.2573 81.8137 36.177C82.4095 36.0968 83.0152 36.1346 83.5963 36.2884C84.1774 36.4422 84.7225 36.709 85.2005 37.0735C85.6785 37.438 86.0801 37.893 86.3822 38.4127C86.6843 38.9324 86.8812 39.5065 86.9615 40.1022C87.0417 40.6979 87.0039 41.3036 86.8501 41.8848C86.6963 42.4659 86.4295 43.011 86.065 43.489V43.6255Z" fill="#39B7E9"/>
</g>
<defs>
<filter id="filter0_d_466_5356" x="0.373333" y="0.506666" width="132.253" height="132.253" filterUnits="userSpaceOnUse" color-interpolation-filters="sRGB">
<feFlood flood-opacity="0" result="BackgroundImageFix"/>
<feColorMatrix in="SourceAlpha" type="matrix" values="0 0 0 0 0 0 0 0 0 0 0 0 0 0 0 0 0 0 127 0" result="hardAlpha"/>
<feOffset dy="12.1333"/>
<feGaussianBlur stdDeviation="10.3133"/>
<feComposite in2="hardAlpha" operator="out"/>
<feColorMatrix type="matrix" values="0 0 0 0 0.220833 0 0 0 0 0.220833 0 0 0 0 0.220833 0 0 0 0.15 0"/>
<feBlend mode="normal" in2="BackgroundImageFix" result="effect1_dropShadow_466_5356"/>
<feBlend mode="normal" in="SourceGraphic" in2="effect1_dropShadow_466_5356" result="shape"/>
</filter>
</defs>
</svg>
