<svg width="17" height="17" viewBox="0 0 17 17" fill="none" xmlns="http://www.w3.org/2000/svg">
<path fill-rule="evenodd" clip-rule="evenodd" d="M8.35009 1.54545C4.5816 1.54545 1.54545 4.30049 1.54545 8.5C1.54545 8.92677 1.19949 9.27273 0.772727 9.27273C0.345962 9.27273 0 8.92677 0 8.5C0 3.42678 3.7484 0 8.35009 0C12.0275 0 15.1052 1.96534 16.1865 5.16144C16.3233 5.56569 16.1064 6.00428 15.7022 6.14106C15.2979 6.27783 14.8594 6.061 14.7226 5.65674C13.8876 3.18875 11.4774 1.54545 8.35009 1.54545ZM16.2273 7.72727C16.654 7.72727 17 8.07323 17 8.5C17 13.5732 13.2516 17 8.64991 17C4.97337 17 1.89485 15.0347 0.813487 11.8386C0.676713 11.4343 0.893549 10.9957 1.2978 10.8589C1.70206 10.7222 2.14065 10.939 2.27742 11.3433C3.11242 13.8112 5.52336 15.4545 8.64991 15.4545C12.4184 15.4545 15.4545 12.6995 15.4545 8.5C15.4545 8.07323 15.8005 7.72727 16.2273 7.72727Z" fill="white"/>
<path fill-rule="evenodd" clip-rule="evenodd" d="M16.4149 1.5686C16.8289 1.67211 17.0806 2.09165 16.9771 2.50567L16.2044 5.59658C16.1009 6.01061 15.6813 6.26233 15.2673 6.15882L12.1764 5.3861C11.7624 5.28259 11.5107 4.86305 11.6142 4.44903C11.7177 4.035 12.1372 3.78328 12.5512 3.88679L14.8925 4.4721L15.4778 2.13085C15.5813 1.71682 16.0008 1.4651 16.4149 1.5686ZM0.795982 11.4036C0.899488 10.9895 1.31903 10.7378 1.73305 10.8413L4.82396 11.6141C5.23798 11.7176 5.48971 12.1371 5.3862 12.5511C5.2827 12.9652 4.86316 13.2169 4.44913 13.1134L2.10788 12.5281L1.52257 14.8693C1.41906 15.2833 0.99952 15.5351 0.585496 15.4316C0.171473 15.328 -0.0802514 14.9085 0.0232545 14.4945L0.795982 11.4036Z" fill="white"/>
</svg>
