<svg width="14" height="16" viewBox="0 0 14 16" fill="none" xmlns="http://www.w3.org/2000/svg">
<path d="M13.1889 12.4937C12.8521 11.6958 12.3632 10.9711 11.7497 10.3598C11.1379 9.74679 10.4133 9.25803 9.61573 8.92053C9.60858 8.91695 9.60144 8.91517 9.5943 8.9116C10.7068 8.10803 11.43 6.7991 11.43 5.32231C11.43 2.87588 9.44787 0.893738 7.00144 0.893738C4.55501 0.893738 2.57287 2.87588 2.57287 5.32231C2.57287 6.7991 3.29608 8.10803 4.40858 8.91338C4.40144 8.91695 4.3943 8.91874 4.38715 8.92231C3.58715 9.25981 2.8693 9.74374 2.25323 10.3616C1.64021 10.9733 1.15145 11.698 0.81394 12.4955C0.482372 13.2763 0.30355 14.1135 0.287154 14.9616C0.286677 14.9807 0.29002 14.9996 0.296986 15.0174C0.303951 15.0351 0.314399 15.0513 0.327712 15.0649C0.341025 15.0786 0.356935 15.0894 0.374504 15.0968C0.392074 15.1042 0.410947 15.108 0.430011 15.108H1.50144C1.58001 15.108 1.64251 15.0455 1.6443 14.9687C1.68001 13.5902 2.23358 12.2991 3.21215 11.3205C4.22465 10.308 5.5693 9.75088 7.00144 9.75088C8.43358 9.75088 9.77822 10.308 10.7907 11.3205C11.7693 12.2991 12.3229 13.5902 12.3586 14.9687C12.3604 15.0473 12.4229 15.108 12.5014 15.108H13.5729C13.5919 15.108 13.6108 15.1042 13.6284 15.0968C13.6459 15.0894 13.6619 15.0786 13.6752 15.0649C13.6885 15.0513 13.6989 15.0351 13.7059 15.0174C13.7129 14.9996 13.7162 14.9807 13.7157 14.9616C13.6979 14.108 13.5211 13.2777 13.1889 12.4937ZM7.00144 8.39374C6.1818 8.39374 5.41037 8.0741 4.83001 7.49374C4.24965 6.91338 3.93001 6.14195 3.93001 5.32231C3.93001 4.50267 4.24965 3.73124 4.83001 3.15088C5.41037 2.57052 6.1818 2.25088 7.00144 2.25088C7.82108 2.25088 8.59251 2.57052 9.17287 3.15088C9.75322 3.73124 10.0729 4.50267 10.0729 5.32231C10.0729 6.14195 9.75322 6.91338 9.17287 7.49374C8.59251 8.0741 7.82108 8.39374 7.00144 8.39374Z" fill="#39B7E9"/>
</svg>
