<svg width="31" height="25" viewBox="0 0 31 25" fill="none" xmlns="http://www.w3.org/2000/svg">
<path d="M2.09782 0.0485741C1.77584 0.0485741 1.46704 0.17648 1.23937 0.404154C1.01169 0.631828 0.883789 0.940621 0.883789 1.2626C0.883789 1.58458 1.01169 1.89337 1.23937 2.12105C1.46704 2.34872 1.77584 2.47663 2.09782 2.47663H4.79295L7.97856 15.2239C8.24929 16.3044 9.21687 17.0449 10.3301 17.0449H25.469C26.5653 17.0449 27.4965 16.3165 27.7842 15.2603L30.9309 3.69065H28.3888L25.4678 14.6169H10.3289L7.14452 1.86961C7.01298 1.34665 6.70975 0.882948 6.28339 0.552776C5.85703 0.222604 5.3322 0.0450594 4.79295 0.0485741H2.09782ZM23.9503 17.0449C21.9532 17.0449 20.3082 18.6899 20.3082 20.687C20.3082 22.6841 21.9532 24.3291 23.9503 24.3291C25.9474 24.3291 27.5924 22.6841 27.5924 20.687C27.5924 18.6899 25.9474 17.0449 23.9503 17.0449ZM13.0241 17.0449C11.027 17.0449 9.38197 18.6899 9.38197 20.687C9.38197 22.6841 11.027 24.3291 13.0241 24.3291C15.0211 24.3291 16.6661 22.6841 16.6661 20.687C16.6661 18.6899 15.0211 17.0449 13.0241 17.0449ZM16.6661 0.0485741V6.1187H13.0241L17.8802 10.9748L22.7363 6.1187H19.0942V0.0485741H16.6661ZM13.0241 19.473C13.7088 19.473 14.2381 20.0023 14.2381 20.687C14.2381 21.3717 13.7088 21.901 13.0241 21.901C12.3393 21.901 11.81 21.3717 11.81 20.687C11.81 20.0023 12.3393 19.473 13.0241 19.473ZM23.9503 19.473C24.635 19.473 25.1643 20.0023 25.1643 20.687C25.1643 21.3717 24.635 21.901 23.9503 21.901C23.2656 21.901 22.7363 21.3717 22.7363 20.687C22.7363 20.0023 23.2656 19.473 23.9503 19.473Z" fill="#39B7E9"/>
</svg>
