<svg width="28" height="28" viewBox="0 0 28 28" fill="none" xmlns="http://www.w3.org/2000/svg">
<path d="M14 26.5C15.6418 26.5021 17.2679 26.1798 18.7848 25.5515C20.3016 24.9231 21.6793 24.0012 22.8388 22.8388C24.0012 21.6793 24.9231 20.3016 25.5515 18.7848C26.1798 17.2679 26.5021 15.6418 26.5 14C26.5021 12.3582 26.1797 10.7321 25.5514 9.21528C24.9231 7.69843 24.0012 6.3207 22.8388 5.16126C21.6793 3.99878 20.3016 3.07688 18.7848 2.44856C17.2679 1.82024 15.6418 1.49788 14 1.50001C12.3582 1.49792 10.7321 1.82029 9.21528 2.44861C7.69843 3.07693 6.3207 3.99881 5.16126 5.16126C3.99881 6.3207 3.07693 7.69843 2.44861 9.21528C1.82029 10.7321 1.49792 12.3582 1.50001 14C1.49788 15.6418 1.82024 17.2679 2.44856 18.7848C3.07688 20.3016 3.99878 21.6793 5.16126 22.8388C6.3207 24.0012 7.69843 24.9231 9.21528 25.5514C10.7321 26.1797 12.3582 26.5021 14 26.5V26.5Z" stroke="#FF0000" stroke-width="2.5" stroke-linejoin="round"/>
<path fill-rule="evenodd" clip-rule="evenodd" d="M14 22.125C14.4144 22.125 14.8118 21.9604 15.1049 21.6674C15.3979 21.3743 15.5625 20.9769 15.5625 20.5625C15.5625 20.1481 15.3979 19.7507 15.1049 19.4576C14.8118 19.1646 14.4144 19 14 19C13.5856 19 13.1882 19.1646 12.8951 19.4576C12.6021 19.7507 12.4375 20.1481 12.4375 20.5625C12.4375 20.9769 12.6021 21.3743 12.8951 21.6674C13.1882 21.9604 13.5856 22.125 14 22.125Z" fill="#FF0000"/>
<path d="M14 6.5V16.5" stroke="#FF0000" stroke-width="2.5" stroke-linecap="round" stroke-linejoin="round"/>
</svg>
