<svg width="11" height="15" viewBox="0 0 11 15" fill="none" xmlns="http://www.w3.org/2000/svg">
<path d="M8.22 1.66659H5.83333V0.333252H10.5V4.99992H9.16667V2.60659L6.61333 5.15992C6.91463 5.61487 7.09963 6.13683 7.15208 6.67998C7.20454 7.22313 7.12285 7.77085 6.9142 8.27505C6.70554 8.77925 6.37629 9.22452 5.95535 9.57176C5.53442 9.919 5.03468 10.1576 4.5 10.2666V11.6666H5.83333V12.9999H4.5V14.3333H3.16667V12.9999H1.83333V11.6666H3.16667V10.2666C2.41376 10.1129 1.73707 9.7038 1.25113 9.10852C0.765189 8.51324 0.499843 7.76835 0.5 6.99992C0.5 6.11586 0.85119 5.26802 1.47631 4.6429C2.10143 4.01777 2.94928 3.66659 3.83333 3.66659C4.5 3.66659 5.14 3.86659 5.66667 4.21992L8.22 1.66659ZM3.83333 4.99992C3.3029 4.99992 2.79419 5.21063 2.41912 5.5857C2.04405 5.96078 1.83333 6.46949 1.83333 6.99992C1.83333 7.53035 2.04405 8.03906 2.41912 8.41413C2.79419 8.78921 3.3029 8.99992 3.83333 8.99992C4.36377 8.99992 4.87247 8.78921 5.24755 8.41413C5.62262 8.03906 5.83333 7.53035 5.83333 6.99992C5.83333 6.46949 5.62262 5.96078 5.24755 5.5857C4.87247 5.21063 4.36377 4.99992 3.83333 4.99992Z" fill="#39B7E9"/>
</svg>
