<svg width="36" height="23" viewBox="0 0 36 23" fill="none" xmlns="http://www.w3.org/2000/svg">
<g clip-path="url(#clip0_466_2581)">
<path d="M16.2316 0H12.7012V1.02165H16.2316V0Z" fill="#323033"/>
<path d="M29.9911 9.69678H23.1411V15.9762H29.9911V9.69678Z" fill="#F29E73"/>
<path d="M11.4551 2.53955H5.91406V4.65466H11.4551V2.53955Z" fill="#323033"/>
<path d="M8.99783 1.77954H5.95898V5.4144H8.99783V1.77954Z" fill="#6A686D"/>
<path d="M8.99783 1.77954H5.95898V2.81686H8.99783V1.77954Z" fill="#858389"/>
<path fill-rule="evenodd" clip-rule="evenodd" d="M5.95874 1.77954H5.46717C4.96712 1.77954 3.82861 2.18885 3.82861 2.68826V4.50568C3.82861 5.00574 4.96712 5.4144 5.46717 5.4144H5.95874V1.77954Z" fill="#858389"/>
<path fill-rule="evenodd" clip-rule="evenodd" d="M0.476553 3.25024H3.82874V3.94288H0.476553L0 3.59689L0.476553 3.25024Z" fill="#4E4D51"/>
<path fill-rule="evenodd" clip-rule="evenodd" d="M0.0800781 3.59692L0.277227 3.52315L0.474377 3.44873V3.59692V3.74445L0.277227 3.67069L0.0800781 3.59692Z" fill="#A09EA5"/>
<path fill-rule="evenodd" clip-rule="evenodd" d="M14.5386 5.71216L14.4942 6.03856C14.3335 7.21509 14.0249 8.36661 13.5757 9.46583L13.8982 9.61402C14.5197 9.8995 15.1955 10.0473 15.8795 10.0473C16.5634 10.0473 17.2392 9.8995 17.8607 9.61402L17.4136 6.14301L14.5386 5.71216Z" fill="#323033"/>
<path fill-rule="evenodd" clip-rule="evenodd" d="M19.2334 7.36377H22.2912C23.1019 7.36584 23.8788 7.68866 24.4522 8.26173C25.0256 8.83479 25.349 9.61151 25.3516 10.4222V14.0838C25.3488 14.8939 25.0258 15.6701 24.4529 16.243C23.8801 16.8158 23.1039 17.1388 22.2938 17.1416H19.2334V7.36377Z" fill="#F5B290"/>
<path fill-rule="evenodd" clip-rule="evenodd" d="M21.4716 16.7956H15.9984C15.8091 16.7954 15.6231 16.7453 15.4592 16.6505C15.2953 16.5557 15.1592 16.4195 15.0645 16.2555C14.9699 16.0915 14.92 15.9054 14.92 15.7161C14.9199 15.5267 14.9697 15.3407 15.0643 15.1766C15.9324 13.6735 16.3182 11.9401 16.1695 10.2107C16.4522 8.8724 16.3653 7.79069 15.7347 6.69527H11.9171C10.7955 6.69527 9.96646 6.27094 9.4292 5.64033V1.4447C9.99715 0.756641 10.8915 0.284005 12.1155 0.284005H23.2016C23.8064 0.279651 24.3949 0.480305 24.8711 0.85326C25.3474 1.22622 25.6832 1.74948 25.8239 2.33775C25.9801 2.96895 25.9721 3.62962 25.8007 4.25685C25.6293 4.88408 25.3002 5.457 24.8447 5.92104L24.5183 6.21872L23.5352 6.48703C22.733 6.70608 22.0498 7.23301 21.6341 7.95321C21.2185 8.6734 21.104 9.52859 21.3156 10.3327C21.8718 12.4453 21.9252 14.6587 21.4716 16.7956Z" fill="#233064"/>
<path fill-rule="evenodd" clip-rule="evenodd" d="M21.4718 16.7956H19.5884C20.1561 14.4463 20.1258 11.9922 19.5003 9.65772C19.4329 9.40654 19.4156 9.14453 19.4495 8.88667C19.4834 8.62881 19.5678 8.38016 19.6978 8.15493C19.8279 7.92971 20.001 7.73231 20.2074 7.57404C20.4138 7.41577 20.6493 7.29972 20.9006 7.23252L23.0764 6.65479C22.394 6.95994 21.8421 7.49758 21.5193 8.17182C21.1965 8.84605 21.1236 9.61304 21.3138 10.336C21.8701 12.4473 21.9242 14.6596 21.4718 16.7956Z" fill="#323033"/>
<path fill-rule="evenodd" clip-rule="evenodd" d="M9.4292 2.84695V1.44471C9.99715 0.756646 10.8915 0.28401 12.1155 0.28401H23.2009C23.8059 0.279508 24.3945 0.480094 24.8709 0.853061C25.3472 1.22603 25.6832 1.74937 25.8239 2.33776C25.8654 2.50524 25.8953 2.67537 25.9134 2.84695H9.4292Z" fill="#2E417F"/>
<path d="M20.1517 15.6128H14.3665C13.4136 15.6128 12.6411 16.3853 12.6411 17.3382V20.71C12.6411 21.6629 13.4136 22.4353 14.3665 22.4353H20.1517C21.1046 22.4353 21.8771 21.6629 21.8771 20.71V17.3382C21.8771 16.3853 21.1046 15.6128 20.1517 15.6128Z" fill="#F4A51D"/>
<path fill-rule="evenodd" clip-rule="evenodd" d="M24.638 8.49765C24.7866 8.62624 24.9084 8.78284 24.9964 8.95849C25.0845 9.13415 25.1371 9.32543 25.1512 9.52141C25.1653 9.7174 25.1407 9.91424 25.0788 10.1007C25.0168 10.2872 24.9187 10.4596 24.7901 10.6082C24.6616 10.7568 24.505 10.8785 24.3293 10.9666C24.1536 11.0546 23.9624 11.1072 23.7664 11.1213C23.5704 11.1355 23.3736 11.1109 23.1871 11.0489C23.0006 10.987 22.8282 10.8889 22.6796 10.7603L17.1679 5.99476C16.8679 5.73506 16.6833 5.3668 16.6548 4.97099C16.6262 4.57519 16.7561 4.18427 17.0158 3.88422C17.2755 3.58418 17.6438 3.39959 18.0396 3.37106C18.4354 3.34254 18.8263 3.47241 19.1264 3.73212L24.638 8.49765Z" fill="#F5B290"/>
<path fill-rule="evenodd" clip-rule="evenodd" d="M13.4165 8.96643C13.2524 8.98364 13.0864 8.96806 12.9284 8.9206C12.7703 8.87314 12.6233 8.79475 12.4958 8.68997C12.3683 8.58519 12.2629 8.45612 12.1857 8.31025C12.1085 8.16438 12.061 8.00463 12.0461 7.84028C12.0312 7.67592 12.0491 7.51024 12.0987 7.35286C12.1484 7.19547 12.2288 7.04953 12.3354 6.9235C12.4419 6.79747 12.5725 6.69387 12.7194 6.61872C12.8663 6.54357 13.0267 6.49837 13.1913 6.48574L15.1451 6.30426C15.4712 6.27985 15.7938 6.38464 16.0433 6.59601C16.2928 6.80739 16.4491 7.10839 16.4786 7.43405C16.5081 7.75971 16.4083 8.0839 16.2009 8.33664C15.9934 8.58939 15.6949 8.75041 15.3697 8.78495L13.4165 8.96643Z" fill="#F5B290"/>
<path fill-rule="evenodd" clip-rule="evenodd" d="M14.9717 12.4491C14.6494 12.4666 14.3328 12.3584 14.0887 12.1473C13.8446 11.9361 13.6919 11.6385 13.6628 11.3171C13.6337 10.9956 13.7305 10.6754 13.9327 10.4238C14.1349 10.1723 14.4269 10.009 14.7471 9.9684L16.6984 9.78822C16.8626 9.77077 17.0287 9.78617 17.187 9.83353C17.3453 9.88089 17.4925 9.95926 17.6202 10.0641C17.7479 10.1689 17.8535 10.2981 17.9308 10.4441C18.008 10.5901 18.0555 10.75 18.0704 10.9145C18.0853 11.079 18.0673 11.2449 18.0175 11.4024C17.9677 11.5599 17.887 11.7059 17.7803 11.832C17.6735 11.958 17.5427 12.0616 17.3955 12.1366C17.2483 12.2116 17.0877 12.2566 16.9229 12.2689L14.9717 12.4491Z" fill="#F5B290"/>
<path fill-rule="evenodd" clip-rule="evenodd" d="M15.1281 14.7255C14.802 14.7499 14.4794 14.6451 14.23 14.4337C13.9805 14.2223 13.8241 13.9213 13.7946 13.5957C13.7651 13.27 13.8649 12.9458 14.0724 12.6931C14.2798 12.4403 14.5784 12.2793 14.9035 12.2448L16.8574 12.0626C17.1797 12.0451 17.4962 12.1533 17.7404 12.3644C17.9845 12.5756 18.1372 12.8732 18.1663 13.1947C18.1954 13.5161 18.0986 13.8363 17.8964 14.0879C17.6941 14.3394 17.4022 14.5027 17.082 14.5433L15.1281 14.7255Z" fill="#F5B290"/>
<path fill-rule="evenodd" clip-rule="evenodd" d="M13.4298 16.4162C13.1034 16.4412 12.7803 16.3368 12.5303 16.1255C12.2803 15.9141 12.1236 15.6129 12.094 15.2869C12.0644 14.9609 12.1643 14.6364 12.3721 14.3835C12.58 14.1306 12.879 13.9696 13.2045 13.9355L15.1577 13.7534C15.4802 13.7355 15.7969 13.8435 16.0413 14.0546C16.2857 14.2657 16.4385 14.5634 16.4677 14.885C16.4969 15.2066 16.4002 15.527 16.1978 15.7786C15.9955 16.0303 15.7033 16.1935 15.383 16.2341L13.4298 16.4162Z" fill="#F5B290"/>
<path d="M36.0002 9.06567H27.0469V17.0874H36.0002V9.06567Z" fill="#34A6C9"/>
<path fill-rule="evenodd" clip-rule="evenodd" d="M5.95874 1.77954H5.46717C4.96712 1.77954 3.82861 2.18885 3.82861 2.68826V3.20724C3.82861 2.99247 4.96712 2.81555 5.46717 2.81555H5.95874V1.77954Z" fill="#A09EA5"/>
<path fill-rule="evenodd" clip-rule="evenodd" d="M11.4694 3.56055C11.5191 3.56089 11.5666 3.58083 11.6017 3.61603C11.6368 3.65124 11.6566 3.69886 11.6567 3.74856V5.29572C11.6566 5.34542 11.6368 5.39304 11.6017 5.42825C11.5666 5.46345 11.5191 5.48339 11.4694 5.48373C11.4196 5.48356 11.3719 5.4637 11.3366 5.42848C11.3014 5.39325 11.2815 5.34553 11.2814 5.29572V3.74856C11.2815 3.69875 11.3014 3.65103 11.3366 3.6158C11.3719 3.58058 11.4196 3.56072 11.4694 3.56055ZM10.763 3.56055C10.8129 3.56072 10.8606 3.58058 10.8958 3.6158C10.931 3.65103 10.9509 3.69875 10.9511 3.74856V5.29572C10.9509 5.34553 10.931 5.39325 10.8958 5.42848C10.8606 5.4637 10.8129 5.48356 10.763 5.48373C10.7133 5.48339 10.6658 5.46345 10.6307 5.42825C10.5956 5.39304 10.5759 5.34542 10.5757 5.29572V3.74856C10.5759 3.69886 10.5956 3.65124 10.6307 3.61603C10.6658 3.58083 10.7133 3.56089 10.763 3.56055ZM12.1751 3.56055C12.2249 3.56072 12.2726 3.58058 12.3078 3.6158C12.343 3.65103 12.3629 3.69875 12.3631 3.74856V5.29572C12.3629 5.34553 12.343 5.39325 12.3078 5.42848C12.2726 5.4637 12.2249 5.48356 12.1751 5.48373C12.1254 5.48339 12.0778 5.46345 12.0427 5.42825C12.0077 5.39304 11.9879 5.34542 11.9877 5.29572V3.74856C11.9879 3.69886 12.0077 3.65124 12.0427 3.61603C12.0778 3.58083 12.1254 3.56089 12.1751 3.56055ZM12.8814 3.56055C12.9311 3.56089 12.9787 3.58083 13.0137 3.61603C13.0488 3.65124 13.0686 3.69886 13.0688 3.74856V5.29572C13.0686 5.34542 13.0488 5.39304 13.0137 5.42825C12.9787 5.46345 12.9311 5.48339 12.8814 5.48373C12.8316 5.48356 12.7839 5.4637 12.7487 5.42848C12.7134 5.39325 12.6936 5.34553 12.6934 5.29572V3.74856C12.6935 3.72378 12.6985 3.69927 12.708 3.67641C12.7176 3.65355 12.7315 3.6328 12.7491 3.61534C12.7667 3.59789 12.7876 3.58406 12.8105 3.57466C12.8334 3.56526 12.8579 3.56046 12.8827 3.56055H12.8814ZM13.5871 3.56055C13.6369 3.56072 13.6846 3.58058 13.7199 3.6158C13.7551 3.65103 13.7749 3.69875 13.7751 3.74856V5.29572C13.7749 5.34553 13.7551 5.39325 13.7199 5.42848C13.6846 5.4637 13.6369 5.48356 13.5871 5.48373C13.5374 5.48339 13.4899 5.46345 13.4548 5.42825C13.4197 5.39304 13.3999 5.34542 13.3998 5.29572V3.74856C13.3999 3.69886 13.4197 3.65124 13.4548 3.61603C13.4899 3.58083 13.5374 3.56089 13.5871 3.56055ZM14.2934 3.56055C14.3431 3.56089 14.3907 3.58083 14.4258 3.61603C14.4609 3.65124 14.4806 3.69886 14.4808 3.74856V5.29572C14.4806 5.34542 14.4609 5.39304 14.4258 5.42825C14.3907 5.46345 14.3431 5.48339 14.2934 5.48373C14.2436 5.48356 14.1959 5.4637 14.1607 5.42848C14.1255 5.39325 14.1056 5.34553 14.1054 5.29572V3.74856C14.1056 3.69875 14.1255 3.65103 14.1607 3.6158C14.1959 3.58058 14.2436 3.56072 14.2934 3.56055ZM14.9991 3.56055C15.049 3.56072 15.0967 3.58058 15.1319 3.6158C15.1671 3.65103 15.187 3.69875 15.1871 3.74856V5.29572C15.187 5.34553 15.1671 5.39325 15.1319 5.42848C15.0967 5.4637 15.049 5.48356 14.9991 5.48373C14.9494 5.48339 14.9019 5.46345 14.8668 5.42825C14.8317 5.39304 14.812 5.34542 14.8118 5.29572V3.74856C14.812 3.69886 14.8317 3.65124 14.8668 3.61603C14.9019 3.58083 14.9494 3.56089 14.9991 3.56055Z" fill="#2E417F"/>
<path fill-rule="evenodd" clip-rule="evenodd" d="M17.681 0.526123H21.9171C22.0465 0.526468 22.1705 0.578024 22.262 0.669524C22.3535 0.761024 22.4051 0.885027 22.4054 1.01443V1.50208H17.1914V1.01443C17.1918 0.884801 17.2435 0.760602 17.3353 0.669064C17.4271 0.577527 17.5514 0.526123 17.681 0.526123Z" fill="#3CB7E9"/>
<path d="M36.0002 13.6851H27.0469V17.0875H36.0002V13.6851Z" fill="#3CB7E9"/>
<path d="M19.6551 19.7991H14.8634C14.3987 19.7991 14.022 20.1758 14.022 20.6405V20.8808C14.022 21.3455 14.3987 21.7223 14.8634 21.7223H19.6551C20.1198 21.7223 20.4966 21.3455 20.4966 20.8808V20.6405C20.4966 20.1758 20.1198 19.7991 19.6551 19.7991Z" fill="#E19525"/>
</g>
<defs>
<clipPath id="clip0_466_2581">
<rect width="36" height="22.4352" fill="white"/>
</clipPath>
</defs>
</svg>
