<svg width="94" height="28" viewBox="0 0 94 28" fill="none" xmlns="http://www.w3.org/2000/svg">
<path d="M10.1035 18.7022C9.13891 16.4515 8.60303 14.0936 8.60303 11.6286C8.60303 9.16352 9.08536 6.80569 10.1035 4.55497C11.336 1.7684 14.0154 0 17.1235 0C20.2316 0 22.911 1.7684 24.1436 4.55497C25.1081 6.80569 25.644 9.16352 25.644 11.6286C25.644 14.0936 25.1617 16.4515 24.1436 18.7022C22.911 21.4888 20.2316 23.2572 17.1235 23.2572C14.0154 23.2572 11.336 21.4888 10.1035 18.7022ZM11.9255 5.35879C11.0681 7.34157 10.6394 9.43148 10.6394 11.6286C10.6394 13.8257 11.0681 15.9156 11.9255 17.8984C12.8365 19.9883 14.8192 21.2744 17.1235 21.2744C19.4278 21.2744 21.4106 19.9883 22.3216 17.8984C23.179 15.9156 23.6077 13.8257 23.6077 11.6286C23.6077 9.43148 23.179 7.34157 22.3216 5.35879C21.4106 3.26886 19.4278 1.98275 17.1235 1.98275C14.8192 1.98275 12.8365 3.26886 11.9255 5.35879Z" fill="#39B7E9"/>
<path d="M8.12055 22.8286C6.35215 22.132 4.79811 21.1138 3.45841 19.7741C2.11871 18.4344 1.10054 16.8804 0.403899 15.112C-0.453507 12.9149 0.0823722 10.5034 1.7436 8.8422C3.40482 7.18101 5.81627 6.64513 8.01339 7.50253C9.78179 8.19917 11.3358 9.21732 12.6755 10.5571C14.0152 11.8967 15.0334 13.4508 15.73 15.2192C16.5874 17.4163 16.0515 19.8277 14.3904 21.489C13.265 22.6143 11.7646 23.2038 10.2641 23.2038C9.56743 23.2574 8.81719 23.0966 8.12055 22.8286ZM2.81535 9.91396C1.58283 11.1465 1.15413 12.9685 1.79719 14.6297C2.38665 16.1838 3.29765 17.577 4.53017 18.756C5.7091 19.9349 7.10239 20.8459 8.65643 21.489C10.3177 22.132 12.0861 21.7569 13.3721 20.4708C14.6047 19.2382 15.0334 17.4163 14.3904 15.755C13.8009 14.201 12.8899 12.8077 11.6573 11.6288C10.4784 10.4498 9.08516 9.53884 7.53106 8.89581C6.99524 8.68144 6.45936 8.57429 5.92348 8.57429C4.74452 8.57429 3.67276 9.05656 2.81535 9.91396Z" fill="white"/>
<path d="M31.687 23.2572V7.34155H33.8841V13.7185C34.2593 13.1826 34.7951 12.7003 35.4382 12.3252C36.1348 11.9501 36.8315 11.7358 37.5281 11.7358C40.1003 11.7358 41.3864 13.2898 41.3864 16.3443V23.2035H39.1893V16.5051C39.1893 14.5759 38.3855 13.6649 36.8315 13.7185C36.2956 13.7185 35.7597 13.8257 35.331 14.0936C34.9023 14.3079 34.5272 14.6295 34.2593 15.0582C33.9913 15.4333 33.8841 15.9156 33.8841 16.3979V23.2035H31.687V23.2572Z" fill="white"/>
<path d="M47.9806 23.4715C46.8017 23.4715 45.7835 23.2035 44.9261 22.7212C44.0151 22.239 43.3185 21.5423 42.8362 20.6849C42.3539 19.8275 42.0859 18.8629 42.0859 17.7376C42.0859 16.5586 42.3539 15.4869 42.8362 14.6295C43.3185 13.7185 44.0151 13.0218 44.8725 12.5395C45.7299 12.0572 46.7481 11.7893 47.8199 11.7357C48.7844 11.7357 49.6419 12.0036 50.4457 12.486C51.2493 12.9682 51.839 13.6113 52.2677 14.4151C52.6964 15.2189 52.9105 16.1835 52.9105 17.2017V18.1663H44.2831C44.3902 19.1844 44.8189 19.9882 45.5156 20.5777C46.2122 21.1672 47.1232 21.4887 48.195 21.4887C48.7309 21.4887 49.2667 21.3815 49.749 21.2208C50.2313 21.06 50.7672 20.6849 51.3029 20.2026L52.4281 21.7566C51.8927 22.2925 51.2493 22.6676 50.3921 22.9892C49.6418 23.3107 48.7844 23.4715 47.9806 23.4715ZM47.8199 13.772C45.8907 13.772 44.7117 14.6295 44.3902 16.3979H50.7136V16.2371C50.66 15.7548 50.4993 15.3261 50.2313 14.951C49.9634 14.5759 49.6419 14.3079 49.2131 14.0936C48.7309 13.8792 48.3021 13.772 47.8199 13.772Z" fill="white"/>
<path d="M54.2334 23.2572V7.34155H56.4307V23.2035H54.2334V23.2572Z" fill="white"/>
<path d="M57.8257 27.9728V11.9501H60.0766V13.5577C60.398 13.0754 60.9341 12.6467 61.6306 12.2716C62.327 11.8965 63.0241 11.7357 63.7205 11.7357C64.739 11.7357 65.6495 12.0036 66.4002 12.486C67.204 12.9682 67.7932 13.6649 68.2756 14.5223C68.7579 15.3797 68.972 16.3979 68.972 17.5232C68.972 18.6486 68.7579 19.6131 68.2756 20.5241C67.7932 21.4351 67.204 22.0782 66.4002 22.6141C65.5959 23.0964 64.739 23.3643 63.7205 23.3643C62.9704 23.3643 62.2739 23.2035 61.6306 22.882C60.9341 22.5605 60.3981 22.1854 60.023 21.7031V27.9193H57.8257V27.9728ZM63.3991 21.3815C64.0419 21.3815 64.6317 21.2208 65.1677 20.8992C65.7032 20.5777 66.0783 20.0954 66.4002 19.5596C66.7216 18.9701 66.8284 18.327 66.8284 17.6304C66.8284 16.9338 66.668 16.2371 66.4002 15.7012C66.1319 15.1118 65.7032 14.683 65.1677 14.3615C64.6317 14.04 64.0419 13.8792 63.3991 13.8792C62.7027 13.8792 62.113 14.04 61.6306 14.3615C61.0945 14.683 60.7195 15.1118 60.398 15.7012C60.0766 16.2907 59.9693 16.9338 59.9693 17.6304C59.9693 18.327 60.1303 19.0237 60.398 19.5596C60.7195 20.149 61.0945 20.5777 61.6306 20.8992C62.1666 21.2208 62.7558 21.3815 63.3991 21.3815Z" fill="white"/>
<path d="M70.2422 27.9728V11.9501H72.4931V13.5577C72.8145 13.0754 73.3506 12.6467 74.0471 12.2716C74.7441 11.8965 75.4406 11.7357 76.137 11.7357C77.1555 11.7357 78.066 12.0036 78.8167 12.486C79.6205 12.9682 80.2097 13.6649 80.6921 14.5223C81.1744 15.3797 81.3885 16.3979 81.3885 17.5232C81.3885 18.6486 81.1744 19.6131 80.6921 20.5241C80.2097 21.4351 79.6205 22.0782 78.8167 22.6141C78.0129 23.0964 77.1555 23.3643 76.137 23.3643C75.3869 23.3643 74.6904 23.2035 74.0471 22.882C73.3506 22.5605 72.8146 22.1854 72.4395 21.7031V27.9193H70.2422V27.9728ZM75.8156 21.3815C76.4584 21.3815 77.0482 21.2208 77.5842 20.8992C78.1197 20.5777 78.4948 20.0954 78.8167 19.5596C79.1381 18.9701 79.2455 18.327 79.2455 17.6304C79.2455 16.9338 79.0845 16.2371 78.8167 15.7012C78.5484 15.1118 78.1197 14.683 77.5842 14.3615C77.0482 14.04 76.4584 13.8792 75.8156 13.8792C75.1192 13.8792 74.5295 14.04 74.0471 14.3615C73.5116 14.683 73.136 15.1118 72.8145 15.7012C72.4931 16.2907 72.3858 16.9338 72.3858 17.6304C72.3858 18.327 72.5468 19.0237 72.8145 19.5596C73.136 20.149 73.5116 20.5777 74.0471 20.8992C74.5295 21.2208 75.1192 21.3815 75.8156 21.3815Z" fill="white"/>
<path d="M88.2666 23.4715C87.1414 23.4715 86.1766 23.2036 85.3192 22.7213C84.4623 22.239 83.7652 21.5424 83.2829 20.6314C82.801 19.774 82.5327 18.7558 82.5327 17.6304C82.5327 16.5051 82.801 15.4869 83.2829 14.6295C83.7652 13.7721 84.4623 13.0755 85.3192 12.5396C86.1766 12.0573 87.1414 11.7894 88.2666 11.7894C89.3387 11.7894 90.3029 12.0573 91.214 12.5396C92.0715 13.0219 92.7679 13.7185 93.2503 14.6295C93.7327 15.4869 94.0005 16.5051 94.0005 17.6304C94.0005 18.7558 93.7327 19.774 93.2503 20.6314C92.7679 21.4888 92.0715 22.1854 91.214 22.7213C90.3029 23.2036 89.3387 23.4715 88.2666 23.4715ZM88.2666 21.4352C88.9636 21.4352 89.5528 21.2744 90.0888 20.9529C90.6249 20.6314 91.0536 20.1491 91.3213 19.5596C91.6427 18.9701 91.7501 18.3271 91.7501 17.5768C91.7501 16.8267 91.6427 16.1836 91.3213 15.5941C90.9999 15.0047 90.6249 14.5759 90.0888 14.2544C89.5528 13.9329 88.9636 13.7721 88.2666 13.7721C87.5701 13.7721 86.9804 13.9329 86.4449 14.2544C85.9089 14.5759 85.4801 15.0583 85.2124 15.6477C84.8904 16.2372 84.7837 16.8802 84.7837 17.6304C84.7837 18.3807 84.8904 19.0237 85.2124 19.6132C85.5338 20.2027 85.9089 20.6314 86.4449 21.0065C86.9804 21.2744 87.5701 21.4352 88.2666 21.4352Z" fill="white"/>
</svg>
